/* XPM */
static char *_639767139347[] = {
/* columns rows colors chars-per-pixel */
"50 50 214 2 ",
"   c #BD573E",
".  c #DF4627",
"X  c #DD472F",
"o  c #DE492E",
"O  c #CC4E3C",
"+  c #DD4733",
"@  c #D44C36",
"#  c #DC4C33",
"$  c #DD4738",
"%  c #D44E3A",
"&  c #DA4C3A",
"*  c #CC533C",
"=  c #CE5236",
"-  c #D45137",
";  c #D3523C",
":  c #DB533D",
">  c #D95137",
",  c #E64727",
"<  c #E4472C",
"1  c #E4492D",
"2  c #E94A2C",
"3  c #E44734",
"4  c #E34B33",
"5  c #E14C3B",
"6  c #E84934",
"7  c #E2513B",
"8  c #B55B4B",
"9  c #BA5A4C",
"0  c #B55948",
"q  c #AE5D51",
"w  c #B05E52",
"e  c #BE5D54",
"r  c #B0634F",
"t  c #AB6153",
"y  c #A1685F",
"u  c #B96050",
"i  c #BC6B58",
"p  c #A86F66",
"a  c #A56F63",
"s  c #AD7169",
"d  c #BE7466",
"f  c #B1766E",
"g  c #BC766A",
"h  c #BC7770",
"j  c #B17E74",
"k  c #BF7C73",
"l  c #CE4F40",
"z  c #D44E42",
"x  c #C45544",
"c  c #CC5443",
"v  c #CA5845",
"b  c #CE5648",
"n  c #C45C4B",
"m  c #CE5B4B",
"M  c #D35443",
"N  c #DB5443",
"B  c #D35A45",
"V  c #D85A45",
"C  c #D95549",
"Z  c #D35C4B",
"A  c #D95C4B",
"S  c #D35F50",
"D  c #DB5F50",
"F  c #CD614C",
"G  c #C2624C",
"H  c #D06146",
"J  c #D3614E",
"K  c #D86248",
"L  c #C46354",
"P  c #CD6454",
"I  c #C36B56",
"U  c #CF6B57",
"Y  c #C7675B",
"T  c #CA6559",
"R  c #C56B5C",
"E  c #CB6B5C",
"W  c #D16452",
"Q  c #D66857",
"!  c #D3675B",
"~  c #DF6759",
"^  c #D26D5D",
"/  c #DC6D5C",
"(  c #DC6853",
")  c #C9735F",
"_  c #D5725E",
"`  c #C46E62",
"'  c #CA6E63",
"]  c #D86E60",
"[  c #C47663",
"{  c #CC7464",
"}  c #C67965",
"|  c #CC7865",
" . c #CC746A",
".. c #C57A6C",
"X. c #CC7B6C",
"o. c #C6766D",
"O. c #D47465",
"+. c #D97364",
"@. c #D4776B",
"#. c #D57A6B",
"$. c #DA7B6A",
"%. c #DE716A",
"&. c #C47D74",
"*. c #CB7D71",
"=. c #D97670",
"-. c #D37C70",
";. c #D97D72",
":. c #BC8175",
">. c #BA847C",
",. c #BB897F",
"<. c #B5877D",
"1. c #C4806D",
"2. c #C58476",
"3. c #CD8374",
"4. c #C3837A",
"5. c #CC857B",
"6. c #C68A7E",
"7. c #CE8B7B",
"8. c #CC8875",
"9. c #D48475",
"0. c #D78877",
"q. c #D3867A",
"w. c #D38B7E",
"e. c #D98676",
"r. c #C8907F",
"t. c #DC917E",
"y. c #E48776",
"u. c #B48F8A",
"i. c #BE8C81",
"p. c #BE948B",
"a. c #B2938E",
"s. c #B59D94",
"d. c #BC9D94",
"f. c #B59D99",
"g. c #BB9E9D",
"h. c #B5A09F",
"j. c #BBA39D",
"k. c #BBA095",
"l. c #9EACAC",
"z. c #9DBDAE",
"x. c #9FACB3",
"c. c #A1ACAD",
"v. c #AEAFAC",
"b. c #B5ACA6",
"n. c #BCABA4",
"m. c #B5ADAC",
"M. c #BAAEAD",
"N. c #B8A6A4",
"B. c #A5B3AF",
"V. c #ACB3AE",
"C. c #B4B2AD",
"Z. c #BAB1AD",
"A. c #A2AEB1",
"S. c #A7AFBA",
"D. c #ADAEB2",
"F. c #B4AEB1",
"G. c #BAAEB3",
"H. c #A6B6B6",
"J. c #A9B5B6",
"K. c #A4B9B5",
"L. c #AAB8B5",
"P. c #A6B6BA",
"I. c #AAB5BA",
"U. c #A5B9BB",
"Y. c #A9B9B9",
"T. c #B3B2B3",
"R. c #BAB2B2",
"E. c #B2B5B9",
"W. c #B1BABA",
"Q. c #BABCBA",
"!. c #CB8B82",
"~. c #C38982",
"^. c #D08780",
"/. c #D28E82",
"(. c #C59284",
"). c #CD9486",
"_. c #CC9983",
"`. c #C29289",
"'. c #CD948A",
"]. c #CD9A8C",
"[. c #D39586",
"{. c #DC9283",
"}. c #D3958A",
"|. c #DC9689",
" X c #D49A8C",
".X c #DA9C8D",
"XX c #C99790",
"oX c #C49D95",
"OX c #CC9C92",
"+X c #CF9C98",
"@X c #D09790",
"#X c #D29E93",
"$X c #DC9D94",
"%X c #E29585",
"&X c #E19887",
"*X c #E29C8D",
"=X c #E89283",
"-X c #C2A097",
";X c #C3A49C",
":X c #CBA69E",
">X c #CBA99B",
",X c #CBA696",
"<X c #D6A394",
"1X c #D4A49B",
"2X c #C9A6A1",
"3X c #C4AAA4",
"4X c #C4ACA9",
"5X c #C5A7A6",
"6X c #D3A5A1",
"7X c #DAA7A3",
"8X c #D9B0AC",
"9X c #A9B7C0",
"0X c #A6B9C0",
"qX c #ACBAC2",
/* pixels */
"z.K.J.E.I.P.P.I.I.J.J.Y.V.K.J.H.K.K.H.J.I.I.I.I.J.J.E.J.P.U.H.K.K.K.H.J.J.J.J.J.I.I.J.I.J.J.J.L.J.J.",
"z.K.J.E.I.I.P.P.P.J.K.J.L.L.I.P.H.K.J.P.P.P.I.I.J.J.J.I.K.U.H.U.K.H.J.J.J.J.J.H.P.P.P.P.E.J.Y.Y.J.H.",
"J.J.J.E.I.J.J.P.J.K.K.L.L.L.H.P.J.L.J.I.E.J.J.J.J.J.P.I.H.J.H.J.I.I.I.I.J.I.J.P.H.K.J.J.J.I.J.J.J.P.",
"I.I.J.J.J.J.H.H.U.H.K.J.L.J.J.P.J.J.I.I.J.J.J.J.J.J.P.P.J.J.J.J.I.I.9XP.I.I.J.H.H.K.Y.I.P.Y.J.J.H.J.",
"E.I.J.J.J.J.P.P.K.J.J.J.K.H.H.J.L.L.I.I.I.I.I.J.K.K.H.H.J.Y.J.J.P.P.I.9XI.J.L.H.H.K.P.P.P.I.H.H.K.J.",
"I.I.I.J.J.I.U.P.H.J.J.J.P.H.J.J.J.H.P.U.I.I.I.J.K.K.H.J.H.J.J.J.H.H.U.I.I.J.J.L.Y.U.P.P.I.Y.P.Y.P.J.",
"I.I.J.H.P.U.P.P.J.J.J.E.P.P.J.H.J.I.H.U.P.H.J.J.U.K.H.Y.J.J.J.J.J.L.H.H.I.I.L.H.H.c.c.x.x.x.H.H.J.J.",
"P.P.P.H.P.P.P.H.T.J.J.I.I.J.E.T.G.G.m.V.J.H.J.J.U.U.J.J.J.J.C.Z.M.b.T.J.J.J.J.J.B.l.l.c.A.x.x.H.J.P.",
"P.P.J.K.P.P.J.L.V.L.K.P.P.E.M.2X6X6X6X3XZ.L.L.L.H.U.H.I.D.G.5X1X1X6Xn.R.J.J.I.H.B.c.l.c.A.l.A.H.Y.J.",
"P.P.U.H.J.J.J.J.Y.Y.J.P.Y.R.u.s w 8 w f j.C.V.B.H.I.J.I.E.h.f w 0 q p a.M.E.I.I.B.c.c.c.c.l.l.J.J.H.",
"J.J.J.H.J.J.I.J.S.I.I.I.V.n.6.I * # c R oXM.V.H.I.I.I.C.Z.oX` b @ * L 6.n.J.J.I.H.l.l.l.c.c.c.I.P.H.",
"J.L.J.J.J.J.J.I.I.I.J.G.j.].#.B # 1 # Z w.:Xb.J.I.I.R.N.oXw.W @ o 4 A @.OXn.F.9XS.l.l.l.l.c.c.S.J.J.",
"V.L.J.K.J.K.J.P.P.H.V.s.h T C N # 4 # % b ` u.R.J.T.n.<.R S N 5 4 1 $ M Y >.N.J.P.S.x.H.A.K.H.P.J.J.",
"L.H.J.J.K.P.J.J.P.v.j.(.E M z % O c ; : z m &.6X4X3X1X*.b : M O * % > % b { ].Z.F.I.I.P.I.I.P.U.Y.P.",
"P.I.I.P.P.Y.H.L.m.s.&.{ Z M S O.*.*.X.^ B % P #.X.3.-.! M N _ X.3.X.^ K M A O.:.f.m.I.I.I.I.I.J.J.H.",
"J.I.P.P.P.J.L.M.4X,.u Z c c ^ 0. X X}.e.m : B B H B Z M M H 9. XOX#X9.^ * : Z L i.n.M.J.I.D.I.I.J.J.",
"K.H.P.I.U.D.M.j.]. .B - b T *.7._._.}.5.E F V > # # & C P E 8.[._._.!.X.P A % B  .].k.C.I.P.E.J.P.J.",
"K.Y.J.D.P.E.4Xj [ P > : O.3.5...[ } ..*.-.9.( % o # % ~ #.3.X...) d *.3.q.+.N % J [ :.n.E.I.I.J.J.J.",
"K.P.D.9XI.G.6Xt x & # B 5.+X!.Y c z c E [..X#.v ; ; c $..X[.T l z l Y ^.+X!.Z & > x r ,XT.U.P.P.J.J.",
"9XI.I.qXP.m.<X0 % 1 4 B `.2X5.W & 3 $ A 9.w.*.{ ) E I X.7.9.A 5 3 $ P 5.2X`.m & 3 @ 0 <XT.I.P.P.P.P.",
"I.9XS.I.H.C.1X8 @ 1 4 m p.;X2.P # 3 6 5 A P ..'.OXOX[...U B : 4 4 & P 5.2X`.m $ 4 # 9 <XM.J.P.J.I.J.",
"I.I.P.I.H.Z.<X8 @ o # m p.;X8.P # , < 4 4 ; | .XOXOX$X| V + 4 o 1 % P 5.>X(.H 4 3 @ 9 +XZ.J.P.P.J.J.",
"J.J.P.P.L.M.<X0 % 4 # m `.:Xq.P # 2 1 o 1 > K +.@.=.%.D 7 1 1 o 3 % P 2.,X(.Z $ 4 @ 0 7XR.J.I.J.J.J.",
"J.J.P.Y.L.C.1Xw c @ # J [.#X5.L % 4 X o 2 1 # ; c z z $ 4 , , 4 3 * R 8.<X8.Z # # c q 8Xm.J.J.J.H.Y.",
"J.J.H.Y.V.Z.3Xy L b & C e.%X9.I n ; > 1 , 2 , 4 $ $ 3 4 < 1 1 # ; n i 8.%Xy.C % c r a 4XR.J.L.K.J.J.",
"J.Y.K.J.J.v.Z.;X$X=.b % v G } %X=X/ * X 1 1 , 2 4 4 2 1 < 4 1 > / y.t.} n v * b -.$X;XZ.D.P.J.H.J.P.",
"U.P.H.L.P.J.L.Z.5X4.n B > * O.*X$X-.c # 1 , < < 1 1 1 , 4 + ; * @.{.{.| * ; c 9 ~.5XM.C.J.P.J.J.Y.H.",
"0XU.P.J.J.I.P.J.R.k.2._ ; ; P  .7.q.$.( : 4 4 , 1 , 2 < o N / @.X...O.P ; K O.4.g.F.J.L.L.J.J.J.H.J.",
"J.I.J.I.9X0XP.9XV.C.k._.E M c v E w.*X0.Z & # 2 2 , 2 4 > Z 0..X3.P m B l E }.N.F.D.J.H.L.H.J.I.J.P.",
"J.I.D.E.qXU.S.S.K.L.C.;X&.T Z V Z $.|.5.' S > 4 2 , 4 N Z ' w.}.O.m M b Y k 5XC.E.J.Y.J.L.J.J.I.J.J.",
"J.J.J.I.S.I.0X0XK.V.B.C.g.XX+.B ; B Q  .!.w./ % 4 # z ] w.2.{ P V ; Z @.`.g.b.T.L.J.H.K.P.J.I.J.J.J.",
"U.K.I.J.J.P.U.U.L.K.B.E.R.4X6.I * ; C ! }.@X;.v * * x $.<X[.U * * * L 2.3XD.J.J.L.H.K.H.P.J.I.P.J.P.",
"P.U.H.J.J.J.I.P.J.J.J.L.T.G.f.>.I H ; A @.8.*.o...d X.*.3.#.K = F ) :.d.C.I.J.P.J.J.H.P.U.P.I.J.J.J.",
"H.H.H.J.J.I.J.J.H.J.L.J.T.T.m.h.r.) O M m T *.[.].].[.X.E Z ; * [ 6.d.b.T.I.P.J.I.P.P.P.U.P.J.J.P.J.",
"J.H.P.J.J.J.J.J.H.P.Y.J.D.J.E.M.oX4.L Z : c { |.].<X|.@.M z V L 4.-X4XC.J.P.I.I.J.J.J.J.J.J.J.J.J.J.",
"K.U.J.J.J.I.J.J.J.H.J.J.J.J.J.m.N.s.&.^ M : P #.X.X.@.Q N C ^ 2.p.n.m.J.I.P.E.J.J.E.J.J.H.J.J.J.J.U.",
"P.Y.Y.J.J.P.P.P.U.P.H.U.J.J.J.L.J.m.3X).P : > % ; * O z z P r.3Xm.J.J.E.I.P.J.D.J.L.J.J.J.J.J.J.J.J.",
"Y.H.J.J.J.J.J.I.H.K.H.H.J.Y.J.J.H.P.C.s.d F : o 4 3 & Z T d s.V.J.Y.P.P.I.I.L.J.J.L.H.J.H.P.J.J.J.P.",
"H.J.J.J.J.J.I.I.P.P.H.K.H.H.J.J.I.I.I.m.g.)._ - o # % ] }.3XR.J.J.P.J.I.H.J.J.L.V.J.Y.P.P.I.I.J.H.J.",
"H.K.P.J.J.I.I.I.J.P.H.H.K.U.Y.H.S.I.I.J.T.3X..0 = % x 3.4XQ.Q.E.I.P.H.P.J.H.J.H.K.K.P.Y.P.P.I.P.J.J.",
"U.H.J.J.I.J.J.A.H.H.I.P.J.Y.Y.H.J.E.J.V.J.n.>.q 8 0 t <.b.W.E.J.J.P.H.J.L.K.J.K.H.P.P.P.I.I.Y.P.J.H.",
"J.H.J.P.J.J.c.c.c.S.P.I.J.J.H.J.J.J.L.H.J.T.4X2X1X1X>X4XT.L.J.J.J.I.J.J.H.L.J.Y.P.P.I.I.P.J.J.Y.Y.P.",
"Y.H.H.H.I.J.c.l.c.A.J.J.J.J.J.J.E.J.H.K.J.J.E.E.T.R.M.G.L.H.I.P.I.P.H.J.L.H.J.I.P.P.I.J.L.H.Y.H.H.J.",
"Y.K.H.J.J.J.A.H.A.J.J.I.J.J.P.J.J.J.P.K.J.P.P.P.J.I.J.J.J.H.9XI.I.P.J.H.L.J.P.P.I.I.J.J.L.L.H.L.J.H.",
"J.P.J.J.P.Y.J.J.J.J.P.J.I.J.I.J.J.I.Y.P.J.J.P.P.J.L.J.J.J.I.I.9XI.P.P.P.J.J.P.I.I.I.J.J.J.H.L.H.J.J.",
"H.J.Y.P.K.H.J.P.I.J.J.J.J.P.I.J.P.J.J.P.E.J.J.H.H.H.J.P.J.J.I.I.I.I.H.J.J.Y.I.I.J.J.J.J.V.H.I.J.J.Y.",
"J.J.J.J.K.J.H.J.J.J.H.J.H.J.J.Y.P.P.U.I.I.I.J.E.I.J.P.H.P.P.J.P.J.J.J.J.J.J.I.I.P.J.K.K.P.P.I.I.P.J.",
"I.J.H.H.J.U.Y.P.J.J.J.J.J.H.H.Y.P.P.U.P.I.I.J.J.J.J.P.P.H.Y.J.Y.J.J.H.J.J.J.J.P.P.J.H.K.H.I.S.9XP.J.",
"J.J.H.P.J.H.P.J.J.J.H.Y.H.J.J.J.K.P.J.P.J.H.P.J.J.H.J.Y.H.J.J.J.J.P.U.J.J.P.J.Y.J.P.Y.H.K.P.P.P.J.Y.",
"P.J.J.J.J.J.J.J.J.U.P.J.H.J.P.J.J.J.Y.P.J.J.J.J.J.Y.P.J.H.J.J.P.J.J.J.J.J.H.H.J.H.J.H.J.J.J.P.J.J.J."
};
