/* XPM */
static char *_639818591721[] = {
/* columns rows colors chars-per-pixel */
"30 26 2 1 ",
"  c #E6482E",
". c None",
/* pixels */
"......     ........     ......",
"......     ........     ......",
"....         ....        .....",
"....         ....         ....",
"..     ....        ....     ..",
"..    .....        .....    ..",
"..   ..... .      . .....   ..",
"    ..     ..    ..     ..    ",
"    ..     ..    ..     ..    ",
"    ..       ....       ..    ",
"    ..       ....       ..    ",
"    ..                  ..    ",
"    ..                  ..    ",
"..    ...            ...    ..",
"..    ...            ...    ..",
"....    ...        ..     ....",
"....     ..        ..     ....",
"......     ..    ..     ......",
"......     ..    ..     ......",
"........   ........   ........",
".........    ....    .........",
".........    ....    .........",
"...........        ...........",
"...........        ...........",
".............    .............",
".............    ............."
};
