/* XPM */
static char *b7c3d071da2d4be7966065b7a132e74cSuOZaHcM10yQ4H0Y[] = {
/* columns rows colors chars-per-pixel */
"50 50 15 1 ",
"  c #9EACAD",
". c #A0AEAF",
"X c #A2B0B1",
"o c #A4B2B3",
"O c #A5B3B4",
"+ c #A6B4B5",
"@ c #A7B5B6",
"# c #A8B6B7",
"$ c #A9B7B8",
"% c #AAB8B9",
"& c #ACBABB",
"* c #AEBBBC",
"= c #AFBCBD",
"- c #B0BDBE",
"; c #B1BEBF",
/* pixels */
"##################################################",
"##################################################",
"##################################################",
"##################################################",
"##################################################",
"###########################################$######",
"########################################@......###",
"########################################X.    .###",
"########################################o     .###",
"###############################oX.o#####o      ###",
"###############################.  o#####o     .###",
"###############################. .o#####o     .###",
"#########OXoO##################oXoo#####ooXoooo###",
"#########X  X#####################################",
"#########X  o#####################################",
"#########oXXO#####################################",
"##################################################",
"##################################################",
"##################################################",
"##################################################",
"##################################################",
"###########################################$######",
"########################################&;;%######",
"########################################&;;;######",
"########################################%;;;######",
"############&;;;;;=###############################",
"############&;;;;;=###############################",
"############&;;;;;=###############################",
"############&;;;;;=###############################",
"############&;;;;;=###############################",
"############&;;;;;=###############################",
"############$%%%%%%###############################",
"##################################################",
"##################################################",
"##################################################",
"##################################################",
"##################################################",
"############################&&&$##################",
"############################;;;$##################",
"############################;;;###################",
"######Ooo@##################&**$##################",
"######.  o########################################",
"######.  o########################################",
"######X..O########################################",
"##################################################",
"##################################################",
"##################################################",
"##################################################",
"##################################################",
"##################################################"
};
