/* XPM */
static char *e3e22242e34c4f71ead7a4f2b0ec997dXDP9Z9fKSrJcw2oW[] = {
/* columns rows colors chars-per-pixel */
"50 50 203 2 ",
"   c None",
".  c #2A1E14",
"X  c #2D2116",
"o  c #2F2218",
"O  c #32241A",
"+  c #3A2B1F",
"@  c #3D2D21",
"#  c #3A312B",
"$  c #533015",
"%  c #4B270D",
"&  c #402F23",
"*  c #433225",
"=  c #453529",
"-  c #4B392C",
";  c #46372C",
":  c #533A27",
">  c #4B3D32",
",  c #5C493D",
"<  c #574437",
"1  c #614D3F",
"2  c #745030",
"3  c #4D4D4D",
"4  c #5C4E43",
"5  c #5F5045",
"6  c #5D544C",
"7  c #56514D",
"8  c #545353",
"9  c #5D5D5D",
"0  c #585757",
"q  c #64564B",
"w  c #6D5A4C",
"e  c #675648",
"r  c #725D4E",
"t  c #7A5D44",
"y  c #675E57",
"u  c #725F51",
"i  c #6C645F",
"p  c #746253",
"a  c #796556",
"s  c #7D6A5B",
"d  c #7A675A",
"f  c #79614B",
"g  c #656464",
"h  c #6E6A67",
"j  c #6B6B6B",
"k  c #6A6664",
"l  c #7E6E61",
"z  c #716F6D",
"x  c #757474",
"c  c #797777",
"v  c #7C7B7B",
"b  c #7D7874",
"n  c #91561E",
"m  c #94581F",
"M  c #985B1F",
"N  c #8A5726",
"B  c #9C5D22",
"V  c #925923",
"C  c #885B32",
"Z  c #A05F21",
"A  c #AA6523",
"S  c #B36B25",
"D  c #BA6F26",
"F  c #BE7228",
"G  c #A06E3F",
"H  c #AE7238",
"J  c #C17428",
"K  c #816D5D",
"L  c #9C744E",
"P  c #826F61",
"I  c #847264",
"U  c #8B7564",
"Y  c #85766B",
"T  c #8A7769",
"R  c #8A796C",
"E  c #85796F",
"W  c #937D6E",
"Q  c #847B75",
"!  c #877E77",
"~  c #927F70",
"^  c #C6813E",
"/  c #BF8144",
"(  c #8E8076",
")  c #948174",
"_  c #9A8373",
"`  c #95867B",
"'  c #99877A",
"]  c #97897E",
"[  c #9B8A7D",
"{  c #9F8877",
"}  c #A38C7C",
"|  c #A98F7D",
" . c #D09B66",
".. c #CB9E71",
"X. c #838383",
"o. c #898786",
"O. c #8D8C8C",
"+. c #8A8788",
"@. c #9B8D82",
"#. c #918F8F",
"$. c #968A81",
"%. c #9D918A",
"&. c #959595",
"*. c #9B9A9B",
"=. c #A08D80",
"-. c #A49183",
";. c #AB9382",
":. c #A4958A",
">. c #A6998F",
",. c #AC9A8D",
"<. c #AF9887",
"1. c #B49C8B",
"2. c #B69C87",
"3. c #AB9D93",
"4. c #A69A92",
"5. c #B09E92",
"6. c #BAA08F",
"7. c #ADA29A",
"8. c #AEA197",
"9. c #B2A195",
"0. c #BDA593",
"q. c #B2A49B",
"w. c #BCAA9D",
"e. c #B5A89F",
"r. c #A4A3A3",
"t. c #ADACAC",
"y. c #A9A7A6",
"u. c #B5AAA2",
"i. c #BCADA3",
"p. c #BCB2AA",
"a. c #BFB0A6",
"s. c #B3B3B3",
"d. c #BBBBBB",
"f. c #BFB7B0",
"g. c #C2A897",
"h. c #C8AE9C",
"j. c #CCB19E",
"k. c #DDB49A",
"l. c #CDB4A2",
"z. c #C3B5AB",
"x. c #CDBBAF",
"c. c #C7B6AA",
"v. c #D2B7A4",
"b. c #D5B9A7",
"n. c #D6BAA8",
"m. c #DABEAC",
"M. c #C4BBB4",
"N. c #CBBDB4",
"B. c #C5BBB5",
"V. c #E1BEA7",
"C. c #DDC0AE",
"Z. c #CCC3BD",
"A. c #DBC3B3",
"S. c #D3C4BB",
"D. c #D9C6B8",
"F. c #E2C2AC",
"G. c #E3C6B3",
"H. c #E6C9B6",
"J. c #E6CCBA",
"K. c #E8CEBD",
"L. c #E9D0BF",
"P. c #BFBFC0",
"I. c #CCCCCC",
"U. c #C4C4C4",
"Y. c #D5CCC4",
"T. c #DBCDC3",
"R. c #D5CEC9",
"E. c #DBD2CB",
"W. c #D9D1CA",
"Q. c #D5D5D5",
"!. c #DBDBDB",
"~. c #DCD5D1",
"^. c #E1CDC1",
"/. c #EAD3C4",
"(. c #E2D5CD",
"). c #EBD6C9",
"_. c #E7D8CF",
"`. c #EDDACD",
"'. c #E4D0C2",
"]. c #E4DBD4",
"[. c #EDDDD3",
"{. c #E2DDDA",
"}. c #F0DFD3",
"|. c #EFE0D6",
" X c #ECE2DB",
".X c #F1E1D6",
"XX c #F2E5DB",
"oX c #F4E8DF",
"OX c #E2E2E2",
"+X c #EDE8E5",
"@X c #EEEAE8",
"#X c #F3E7E0",
"$X c #F6EBE4",
"%X c #F6EDE6",
"&X c #F5EAE2",
"*X c #F7EFE9",
"=X c #F6EEE8",
"-X c #F8EFEA",
";X c #F8EFEA",
":X c #F9F2ED",
">X c #F8F1EB",
",X c #FAF5F3",
"<X c #FCF8F7",
/* pixels */
"                            r w w w w w w w                                                         ",
"                      u s -.5.c.T.[. X].N.e.>.d u                                                   ",
"                  a } v.).XXXXXXoX#X&X$X$X*X-X:XR.] p                                               ",
"              w W b.H.H./..XXXXXoXoX&X&X$X*X*X-X>X,XW.l                                             ",
"            r ;.H.H.H.H.).}.}.XXXXoXoX&X&X$X(.#X*X:X:X+X) r                                         ",
"          w | G.H.H.H.H.K.}.XXXXXXXXoX&X$X$X#Xz.&X:X:X:X@XE                                         ",
"          I C.H.H.H.H.H.H.}.XXXXXXXXoXoX&X&X$XXXR.*X:X:X,XR.p                                       ",
"        r g.H.H.H.H.H.H.H./.}.XXXXXXXXoX&X&X$X%X&X*X:X:X:X X`                                       ",
"        U G.H.H.H.H.H.H.H.H./.}.XXoXXXoX#X$X$X$X*X*X-X:X:XN.f.r                           3 3       ",
"      w ;.H.H.H.H.G.g.2.j.v.j.x.D.T.}.oX#X#X$X$X$X%X*X*X].B.{.Y                     3 3 8 j 9 3     ",
"      w v.H.H.H.H.m.b.h.1.U - @ + < T N..X&X$X$X%X%XT.) < = 4.`                   3 0 v s.Q.X.3     ",
"      K m.H.H.H.H.H.H.H.V.- . . . . . = d i.[.#X$XZ.= o . . 4 `                   g d.Q.OXI.y.8 3   ",
"      ) J.H.H.H.H.H.H.H.;.& . . . . . . O @ d XX$X:.. . . . > %.w               3 X.Q.!.OXd.s.x 3   ",
"      { /.K.H.H.H.H.H.H.U . . . . . . . . . - N.#X@.. . . . ; 3.w               3 &.Q.OXI.s.s.O.3   ",
"      [ )./.J.H.H.H.H.H.: . . . . . . . . . = i.&X~ . . . . ; 3.w               x Q.!.OXd.s.s.g     ",
"      [ `.).K.J.H.H.H.F.- . . . . . . . . . > T.#X@.. . . . > &.w             3 r.!.!.Q.s.s.&.3     ",
"      ) ).`.J.J.H.H.H.F.- . . . . . . . . . 4 XX&X;.. . . . 4 @.              0 I.!.OXU.s.t.j       ",
"      a T.}.`./.K.J.H.H.1.r * O . . . . . + -.#X#X5.- @ & 4 u.`               X.I.!.Q.s.s.&.3       ",
"      w x..X.X`./.G.H.H./.^.g.T 1 * @ O @ w _.XXi.e T.c.T.{.,X!             3 P.!.OXU.s.t.j         ",
"        ) |..X`./.F.G.H.H.`.`.).^.x.-.~ } T.XX[.4 . i.#X$X=X XP             j Q.!.!.s.s.*.8         ",
"        r i. X[.`.).J.H.F.K.`.`.`.}.}.}.}..XXX3.. . 5  X$X-X~.w           3 *.Q.OXU.s.s.g           ",
"          s c.S.}.K.H.L.H.H.J.).`.`.}.}.}..X}.a . . @ [.$X-Xp.w           8 Q.Q.!.s.s.&.3           ",
"            R _..X/././.G.V.H.H./.`.`.}.}.}..X5.& & ] #X#X-X:.            o.Q.OXI.s.s.j             ",
"            p S.oX.X`.).K.G.H.H.G.K./.5././..XXXz.c.}.$XE.u.P           3 d.Q.OXd.s.&.8             ",
"              ) $XXX[.[.).K.H.H.F.H.G.} G.J.[.|..XXXoX$XB.w             g Q.!.I.s.s.g               ",
"              u 7.Y.|.[.).k.J.J.H.v.} s 1.H./.|.}.XX.Xz.N.            3 *.Q.OXd.s.&.8               ",
"                8 X.c g %.J.A.1.U K E.!.s v.H.).z..XXX3.i.            0 I.Q.Q.s.s.g                 ",
"                3 &.d.t.k 8       ' |.D.w U 0.h.) ,.>.u w             X.Q.!.P.s.&.8                 ",
"            9 &.o.g #.r.&.3       ) H.0.    w w w             B n n e y.Q.!.s.s.j                   ",
"              x s.s.&.#.r.8 ! 8.@._ 0.' 3.4.Y @.@.          n S D S B G | M.t.&.8                   ",
"            8 X.O.*.*.+.v 8 T.oXoXD.:.XX&XoX.X3.<Xu.d     6 C B S F  ...H Z L p                     ",
"          8 *.y.o.x x o.3 _ n.n.n.0._ n.b.b.b.} oX&Xi.p   y o.f C V A /  .^ S Z V n                 ",
"          3 8 v O.+.j 8 6 Y R Y R I a R E R R I g.J.J._ q g h 7.M.r 2 n M A D J D A n               ",
"              $.( y j 3 w +X>X%X-XW.3.:X*X*X-X3.p 1.G.U h t.E (.e.Z.Z.[ t N m Z S M                 ",
"            ) ^.N.p 7     <.C.G.m.<.U v.G.G.l.K   p E z X.b 1.A.[ A.D.).C.      n n                 ",
"            (  X@X]       I K U s l s s I I I d       g x k ;.<.p.Z.q.| _                           ",
"            ' $XoX]     w @XZ.>.R.W.B.~.3.M.+X3.        0 h 6 l w.D./.D.s                           ",
"            W L.J._       w.`.`.`.w.) `.`.[.^.          8 x Y R.R.,.W _                             ",
"            W G.G.{       s v.H.l.s d g.G.m._             j Q w.D.).1.                              ",
"            a <.g.T ' d     d =.9.l ' 3.U s               c y : t | 1.                              ",
"          R M.q.M.u.,X-.n.R R ].$XR R  XE.@.              0   % $ $                                 ",
"          ] Y.Z.(.9..X5.<.s } /.D.K   v./.0.                                                        ",
"          W l.0.G.) G.m.w   W 0.1.r   ] w.9.k                                                       ",
"          K v.| A._ { 1.w I :.(.I     j x v X.                                                      ",
"            K d P         M.z.3.w     g b +.x                                                       ",
"                        w |.oXz.      I D.T.'                                                       ",
"                        W H.H.T       p m.H._                                                       ",
"                        | H.h.e       4 } 1.s                                                       ",
"                    5 u.p.M.R <     # z.].N.~.B.R ] l                                               ",
"                    w (.).9.p.q.l l 6 ) ;._ 9.<.;.) q                                               "
};
