/* XPM */
static char *_639765181335[] = {
/* columns rows colors chars-per-pixel */
"50 50 41 1 ",
"  c #757F7F",
". c #7B8686",
"X c #7D8888",
"o c #828D8D",
"O c #848F8F",
"+ c #869191",
"@ c #889494",
"# c #899595",
"$ c #8E9A9B",
"% c #929E9E",
"& c #939E9F",
"* c #95A0A1",
"= c #95A1A2",
"- c #97A2A3",
"; c #98A5A5",
": c #9BA8A9",
"> c #9FABAC",
", c #9EACAD",
"< c #9FADAE",
"1 c #A1ADAD",
"2 c #A2AFAF",
"3 c #A3AFAF",
"4 c #A3AFB0",
"5 c #A2B0B1",
"6 c #A4B2B3",
"7 c #A5B3B4",
"8 c #A7B4B4",
"9 c #A7B5B6",
"0 c #A8B6B7",
"q c #A9B7B8",
"w c #ABB9BA",
"e c #ACB9B9",
"r c #ACBABB",
"t c #AEBCBD",
"y c #AFBCBD",
"u c #B0BDBE",
"i c #B0BEBF",
"p c #B3C0C1",
"a c #B5C2C3",
"s c #B7C4C5",
"d c #B9C6C7",
/* pixels */
"000000000000000000000000000000000000000000009w9w99",
"000000000000000000000000000000000000000000009999w9",
"000000000000000000000000000000000000000000009w999w",
"0000000000000000000000000000000000000000000099w999",
"00000000000000000000000000000000000000000090009w99",
"0000000000000000000000000000000000000000000w0099w9",
"00000000000000000000000000000000000000009<5,<55w99",
"00000000000000000000000000000000000000004,,,,,,9w9",
"00000000000000000000000000000000900000009,,,,,,q9w",
"0000000000000000000000000000000%++:000004,,,,,,999",
"0000000000000000000000000000000o  &000006<,,,,,999",
"0000000000000000000000000000000o .=000004<,,,,40w9",
"0000000007567000000000000000%$$*=;5000009556746099",
"0000000005,,5000000000000000.  0ddu0000000009q00w9",
"0000000005,,6000000000000000.  8ddu000000000q9q99w",
"0000000006557000000000000000.  3ppw0000000009q9q99",
"qqqqqqqqqqqqqqqq000000000000.  :q9q9q9q9q9q9q9q9q9",
"7q7q7q7q7q7q7q7q000000000000.  :9q9q9q9q9q9q9q9q9q",
"qqq7qqq7qqq74::4000006:::800.  :q9q9q9q9q9q9q9q9q9",
"7qqq7qqq7qqq$  @000004  .600.  :9q9q9q9q9q9q9q9q9q",
"q7qqq7q7q7qq$  @008q04   008.  :9q9q99q9q9q9q9q9q9",
"qq7qqqqqqq7q&XX@444444XXX44,OXX:q944499qqwq99q9q9q",
"qqqqq7qqqqqqudd,     Xddd   iddw9q@  $q9wuuuq9q9q9",
"7q7qqq7q7q7qudd,     Xddd  .tddwq9@  $9qwuiu9q9q9q",
"qqq7q7qq0000tdd,     Xddd   tasw99@  $q9quuuq9q9q9",
"7qqqqq7q0000qqqtddddda000   .  .  1ddu9qq9qq9q9q9q",
"q7q7qqqq0000q0qtddddds000         ,ddi99qqq9q9q9q9",
"qqqq7q7q00008q8tddddds000         >ddu9qq99q9q9q9q",
"qqqqq7qq00000000qqqeqeq00   0tiuuurrqr9q9q9qq9q9q9",
"7q7qqq7q00000000qqqq00000   tdddddu889q9q9q99q9q9q",
"qqq7qqqq0000000000q800000   udddddu9q99q9q9qq9q9q9",
"7qqq7q7q000000000q:oooooo87q+++4rqrq9qq9q9q99q9q9q",
"q7qqq7q7qqq7q7qqq7:      dddX  :99q99q9q9q9q9q9qq9",
"qq7qqqqq7qqqqq7qqq:X     sddX  :9q9qq9q9q9q9q9q99q",
"qqqqq7qqq7q7q7q:@@&,:1,,,tuu411=@@@@@;9q9q9q9q9qq9",
"7q7qqq7qqqqqqqq=  Odaddddq88pdd+     $q9q9q9q9q99q",
"qqq7qqq79q9qqqq=. Odddddd99qsddO     $999q9q9q9qq9",
"7qqq7qqqq9q97q74=-:tpuiiuqq9;-=;-;---&$$;9q9q9q99q",
"q7q7q7q79q9q9qqtdda7q7q9qq9q.  7ddddd-  @q9q9q9qq9",
"qqqqqqqqq9q9qq8uddaqqq9q99q9.. 4ddddd-  @9q9q9q99q",
"000000774000000wipu0q9q99q9q=$$0ppppu4$$*q9q9q9qq9",
"00000q<,,6000000q9qq9q9qq9q9addw9q9q9uddp9q9q9q99q",
"000000<,,60000009q9qq9q99q0qsddwq9q9quddpq9q9q9qq9",
"0000004<<7000000q9q99q9qq9q0paaw9q99quspuqq9q9q99q",
"00000000000000009q9q9q9q9q9q0000q9q99q9q9q9q9q9qq9",
"0000000000000000q9q9q9q9q9q900009q9qq9q9q9q9q9q99q",
"00000000000000009q9q9q9q9q9q0000q9q99q9q9q9q9q9qq9",
"0000000000000000q9q9q9q9q9q900009q9qq9q9q9q9q9q99q",
"00000000000000000000000000000000q9q9q9q9q9q9q9q9q9",
"000000000000000000000000000000009q9q9q9q9q9q9q9q9q"
};
