/* XPM */
static char *_639766234293[] = {
/* columns rows colors chars-per-pixel */
"50 50 231 2 ",
"   c #563E1C",
".  c #6B4E17",
"X  c #77661F",
"o  c #5C4C2D",
"O  c #584825",
"+  c #494539",
"@  c #534934",
"#  c #5B4D33",
"$  c #564C38",
"%  c #5C533A",
"&  c #5C522E",
"*  c #654E2A",
"=  c #6A5529",
"-  c #785B29",
";  c #635434",
":  c #63543C",
">  c #6A5938",
",  c #745C33",
"<  c #6B613C",
"1  c #796538",
"2  c #7D6028",
"3  c #50441A",
"4  c #4D4C45",
"5  c #544D41",
"6  c #5C5543",
"7  c #565449",
"8  c #5D5B50",
"9  c #635B45",
"0  c #6C5E43",
"q  c #635C4B",
"w  c #625640",
"e  c #705C42",
"r  c #625B51",
"t  c #665F54",
"y  c #5D605A",
"u  c #5C6049",
"i  c #6B624D",
"p  c #6C6345",
"a  c #736344",
"s  c #74654B",
"d  c #766A4A",
"f  c #7C6B4B",
"g  c #796A45",
"h  c #7D7147",
"j  c #646354",
"k  c #6B6553",
"l  c #63655C",
"z  c #6B695C",
"x  c #6A6A59",
"c  c #736652",
"v  c #766D5A",
"b  c #7A6C55",
"n  c #7B745A",
"m  c #7A7358",
"M  c #6B6B62",
"N  c #676B66",
"B  c #6E736C",
"V  c #737164",
"C  c #73736B",
"Z  c #7B7969",
"A  c #757973",
"S  c #797C74",
"D  c #7A7E7B",
"F  c #747975",
"G  c #70726A",
"H  c #90711A",
"J  c #876927",
"K  c #967728",
"L  c #866B36",
"P  c #8A743B",
"I  c #987736",
"U  c #8E7224",
"Y  c #A07F3B",
"T  c #846D48",
"R  c #897646",
"E  c #967A42",
"W  c #977B45",
"Q  c #857C5E",
"!  c #867757",
"~  c #917C5B",
"^  c #836E53",
"/  c #827B64",
"(  c #8B7C62",
")  c #837966",
"_  c #917D62",
"`  c #847F73",
"'  c #7D8178",
"]  c #AA8A37",
"[  c #AE9339",
"{  c #B19231",
"}  c #A7892B",
"|  c #C9A63A",
" . c #D1AC3A",
".. c #9B8546",
"X. c #9A8956",
"o. c #928857",
"O. c #A48B4B",
"+. c #A88748",
"@. c #A78B55",
"#. c #B38E55",
"$. c #AB925C",
"%. c #A89859",
"&. c #B4935C",
"*. c #B79A58",
"=. c #B1944B",
"-. c #BAA24A",
";. c #B8A258",
":. c #898269",
">. c #988765",
",. c #838073",
"<. c #878679",
"1. c #938C75",
"2. c #958D79",
"3. c #9C947C",
"4. c #979278",
"5. c #9B916C",
"6. c #A28E68",
"7. c #A79767",
"8. c #B79A65",
"9. c #A49979",
"0. c #B69B77",
"q. c #BAA26C",
"w. c #ADA17F",
"e. c #BAA475",
"r. c #C09F42",
"t. c #C8A95C",
"y. c #CFB050",
"u. c #C79F61",
"i. c #C8AA6A",
"p. c #C7B164",
"a. c #D6B56B",
"s. c #C8A974",
"d. c #D7B678",
"f. c #D0A968",
"g. c #E8BA6D",
"h. c #E9BE75",
"j. c #E3BC76",
"k. c #E6C559",
"l. c #DDC270",
"z. c #E8C868",
"x. c #E6CB75",
"c. c #ECD176",
"v. c #F2CE71",
"b. c #7E8482",
"n. c #878B86",
"m. c #928F85",
"M. c #8D928B",
"N. c #88918A",
"B. c #939184",
"V. c #92938D",
"C. c #999789",
"Z. c #848F91",
"A. c #8B9492",
"S. c #889594",
"D. c #939995",
"F. c #989E9B",
"G. c #959A96",
"H. c #A59D8C",
"J. c #A89E85",
"K. c #A69E92",
"L. c #9CA29E",
"P. c #96A09F",
"I. c #AAA38E",
"U. c #A7A189",
"Y. c #B4A889",
"T. c #BDB38B",
"R. c #A9A293",
"E. c #A4A59B",
"W. c #A8A597",
"Q. c #B4AD98",
"!. c #B8B39A",
"~. c #9EAAAB",
"^. c #99A4A5",
"/. c #A3A8A4",
"(. c #A4ACAC",
"). c #A7A8A6",
"_. c #B3AFA2",
"`. c #A5B0AC",
"'. c #ABB3AD",
"]. c #A9B3A7",
"[. c #B1B1AC",
"{. c #BBBAA8",
"}. c #A4AFB1",
"|. c #ABAFB0",
" X c #A6B5B5",
".X c #A9B5B6",
"XX c #A5B8B5",
"oX c #AAB8B5",
"OX c #A6B5BA",
"+X c #A9B6BA",
"@X c #A6B8B9",
"#X c #ABB9BA",
"$X c #B2B6B2",
"%X c #B3BDBC",
"&X c #B5B8B8",
"*X c #D5BA84",
"=X c #C5B99A",
"-X c #C7B489",
";X c #E2BE84",
":X c #C5BAA6",
">X c #C3BDBF",
",X c #C9C09C",
"<X c #D9CF9A",
"1X c #CDC5AC",
"2X c #C6C3AA",
"3X c #D3C8A8",
"4X c #C7C5B6",
"5X c #D4CDB5",
"6X c #DBD5BB",
"7X c #DEDABB",
"8X c #D7D3B5",
"9X c #D5D1AE",
"0X c #E2DCBD",
"qX c #E4DBBA",
"wX c #E4CFB2",
"eX c #E6E1BD",
"rX c #EAD083",
"tX c #AAB9C0",
"yX c #BAC1C1",
"uX c #DAD6C5",
"iX c #DBD9D5",
"pX c #C9CAC2",
"aX c #E3DDC2",
"sX c #E5DBC5",
"dX c #E5E1C3",
"fX c #E6E2CB",
"gX c #E9E3CC",
"hX c #E9E6D4",
"jX c #F3EACD",
"kX c #E1DFE3",
"lX c #E6E5E7",
/* pixels */
" X.X.X.X'..XOX@XOXOX.X+X.X#X+XOX X.X.XoX.X.X.X.X.X'..X'.$XoX.X.X`.oXXX+X.X XOX+XOX.X.X'..X+X.X.X.X.X",
"+X X.X.XoX.X+X#X#X X.X+X$X.XOX+X+X(.(.F.D.A.<.D S S D <.n.D.G./.(..X#X.X.X#XOX+X+X.X(.(.}.+X.X+X.X.X",
"+X+X X+X+X+X+XOX X X+X X+X X#XOX(.F.n.A <.Q.{.uXuXuXuX4X_.B.` S M.F.(.#XoX`.oX.X(.P.A.n.A..X+XOX+X+X",
"+X.X#X XoX`.^.~. XXX X X.X$X.XF.D C W.uXhXsXgXfXfXsXfXgXfXjXfX4XC.F n.P.'..XoX`.D.D M.M.N D.OXtX+X.X",
"+X+X+X#XoXF.A B ^.+X#XoX.X'.D.G S 4XfXdXaXdXaXsXuXdXeXeXeX7XdXhXhXuXB.A D.].`.A.D >XiX$X` A &XOXOX.X",
"+X+XOX`.E.N V l L..X X#X.XM.N n.Q.7XdXdXsX0XdXsXeXqXeXeX0XeXdXaXfXgXfX{.Z V.P.' >XlXiXG.,.M |.+X+X.X",
"+X XOX.X` k ) v F.'.+XoXD.M V.W.W.aXaX0XqXdX0XqX0XeXeXqXdXuXuXgXdXdXdXfX{.G S ).lXkX>Xt j l ^..X.X X",
"XXoX.X.Xz 9 ( c 2.[.[._.C ,.K.K.5XaXaXsXaX0X0XqXeX0X0XdXdXfXsXsXdXaX7XfXfX!.z 4XlXkX).r k q E..X.X+X",
"oX X X'.r w ^ ^ ^ <.m.<.t 2.K.Q.7XdXdXdXdX7XeX0X0X0XdXaXaXaX0XeX0X7XdXuXfXaXC.W.iXiXH.r ! i V..X.X+X",
".X X#X'.z % e ^ ^ c c c c b ` Q.uXuXdXuXdX7X0X8XqXdXuXdXdXdX7XeX7XdXdXdXaX5X1X) >X_.) c s i <.'..X.X",
"+XoX X#XF 5 w e ^ ! _ _ _ b w 2.7X0XdXdXaX2XT.w.Y.!.9X7XdXdXeX7XdX7XdXaXuX:X6X2.) b d ! : 6 n. X X.X",
".X+X X#XF.N $ % : > > > e e $ 1.6XaX7X7X,Xo.X.=.O.X.0.T.9XqXdX7XeXdX7XqX0X:XQ.Y.: Q ^ 0 : 8 M.+X.X X",
".X&X+X+X+XD.M 7 + # o # ; : $ K.qXsX8XY.X.=.l.v.v.z.;...w.=X8XeX0XaXaXqX=X~ >.>.# 0 0 9 5 M ).|.+X X",
"OX+X X+X.X.X(.` M w $ $ @ @ e I.6X=X7.O.i.c.y.|  .k.c.z.%.X.w.<X0XdXqX=XX.e.*XR O # $ $ t D.+XtX X+X",
"OXOXOX.X.X.X'.oX).V.8 z c c ` R.Y.5.O.x.z.r.} U K } | k.v.p.O.7.T.7X,X%.;.c.z.p.= $ 7 8 D.|.OX+X.X.X",
"OX@X X.X.X.XoX+X|.|.t m.K.H.I._ h *.rXy.} H ] *.+.H H }  .z.c.;.O.7.o.%.x.r.{ a.~ c M G $X|..XOX@X.X",
"@XXX.X.X.X.X X.X.X|.l C.K.K.:.p ..;.;.} J Y u.u.s.i.Y K I ] y.v.y.{ r.c.-.H J 7.>.:.V M.|.tX+XOXOXoX",
"XXOX.X+X+X+XoX X'.'.N m.K.U.i o.%.U U P u._ P Y @.#.#.u.Y K H | k.z.k.r.K ..E < m ' M (.+XtX+X+X.X X",
"OXXX.X.X.X.X XoX.X'.8 M.R.I.% 5.&.. E &.u.L L J - J E W +.#.Y K { r.=.K @.8.~ # v Z A #XOX#X X.X X+X",
"XXOX+X.X.X+XoX X.X.XN B.K.H.c ~ @.. @.8.W . * . , , L - L Y W r.} K J L ..! a c <.V D.#X+X+X.X.XoX X",
"OX@X.X.X+X.X.X.X'..XV 2.R.I.v ^ @.X @.8.&.L * : : # * , - J , 8.a.=.- , , > : ) B.M `..XOXOX+X+XOX.X",
"XX.X.X+X.X.X@X XoXoXD ` H.I./ g +.J E 8.s.s., J.9.^ * T , * - i.d.f.. ; * O % ` ` S &X$XOXOX.X.X.X+X",
" X.X.X+X.XOXOX.XoX.Xn.A C.R.1.> ] U 2 O.u.*X_ =XjX1X_ :XT E &.j.j.d.T ~ 6.w 5 m.B ^.tX%X+X+X.X.XoX+X",
".X.X.X.XOX+XOX.X.X.XF.N C.R.3.& P ..P L E u.s.6.=X3X=X-X+.d.h.g.#.d.0.0.wXc 7 n.B OXtXtX X+X.X.X X X",
"+X.X+X.X@XOX+XXX.X.X[.y m.R.H.b < L ..E I O...R >.e.s.#.f.h.h.g.+.&.@.~ s.^ @ G ' %X%X#X+X+X.X X.XOX",
".X+X X.XOX+X+X+XoX.X|.A A V.H.J.( f 1 L X.i.*.*.R 8.s.;Xh.g.g.g.u.I L s.6.e p 7 D.#XoX&X+X+X X.XXX.X",
".X.X+XOXOXXXOX+X.X.X.XG.A V ' C.I.3./ f 1 ..y.c.2 q.d.a.h.h.g.g.a.*.=.d.0.e n l }.+X}.#X+X.X X+X+X+X",
"+X.X.X XXX X#X X.X#X.X.X^.V.' V Z B.R.4.4...=.rX- d.d.t.t.a.h.h.j.a.a.d.@.f k ' oX+X.XoX.X+X X X.X X",
"+X X.XXX+X X.X+X+X}.+X#X.X%X).V.,.V z v 2.R =.c.. e.i.8.u.s.d.d.a.s.u.@., b 6 F.$X|.+X.X X#XOX X+XXX",
".X.XOX@XXX+X.X.X+XOX+X X#X&X%X&XV.7 + l ) o R X.. L P E W W Y Y I J L , O s k K..X.X.X X X#X X X.X.X",
".X+X X X.X.X+XoX+X X#XXX%XyX+Xn.V 8 + l Z q o = R L , T O L Y ] ] J = = 1 Q z ).oX.X X X@X X.X.X X+X",
".XXX#X XOX.X.X+XOX#XOX@X X#XZ.B W.H.5 r 8 ,.6 Q g a T e O ! i.y.p.*.E R 1 < r [..X X@XXX X X+X+X#X X",
"XXXXXX.X+X+X+X+X+X+XXX@X X+XF C.8X8XW.r q H.n 4XY.9.>.~ 9.: 1 ..-.-.=.+...1 i [..X@X XXX.X+X+XOXOX.X",
"XXXX@X.X.X+X+X+X.X.X X X#X(.A _.0XsX` 1.Q.J.3.uX0X=X9.Q Y.@ ~ < X X L +.O.R v .XXXXXXX X.X+XOXOX+X+X",
"OX.X+X.X.X.X.XOX.X.X#X.X}.n.,.!.uX:X) =X6X4.w.8XY.!.=X:.:Xk m f ; o a g > j M.+X.XXX.XoX.X.X+X+X+XXX",
"OX+X+X.X.XXX X X+X.X X.X$Xl m =XsXJ.9.1X0X:.1.I.1X9X3X4.aX9.m 9.# b r B.m.2.(..XXXXXoX'..XoXoX+X X.X",
"+X+X+X+X X XXXXX X.X.X.X$Xk d T ~ 1 0 :X7X/ Q.5XsXsX9.:.w.p g w.: :.l E.].'. X XoX.X.XOX.X.XoX.XoXOX",
"+X+X+X+X XXXXXXX X#X|..X[.9 >.7.8.0.9.) 3.9 ) 4.2.) < w.o.1 O : g C.u ].oXXX X#X.X.X XOX+X.X.X.X X+X",
".X+X+X+XXXXX@XXX+X X+X&X].j 6.*Xj.<X0.; d a d d 0 0 O e.o.1   T :.v Z ].oX X#X X+X.XOXOX@XOX.X.X.X X",
".X.XoX+X.XXXOX@X+X+X+X.X].i 5.s.d.;X6.* & & o o # o 3 1 o.1   >.! 6 E.'.oX@XXXOX+X+XtXOX@XOXOX.X+X X",
" X.X.X+XOXOXOX X}.OX+X.X|.t n 6.*.*X-X: :.n p :.4.3.U.Y.w.w.& & r n..X.XOXOX@XOX+X+X+X+XOX.X.X.X#X X",
".X.X.X+XOXXX}.~.(.+X.X.X.XV.V 0 ; o.h 5.1X9Xn 1X8X6X7X7X2Xm U.' m.|.|..XOXOX+X X.X+X.X+X+X.XoX.X X.X",
"OX.X.X+XoX X~.~.~. X.X.X#X|.).R.U.% 1.8XdXuX9 !.Q.!.U.' ' e.7X2Xn.oX.X X#XOXOXXX X XXX.X X.XoX.X.XOX",
"OX+X+X.X X X}. X(.}..X XOX.X.X[.L.x Q.7XdX{.$ j M C <.i 4.<X7X9XZ '.oXoX X#X XOXXXXX.XXX X.X.X+X X+X",
"+X+X.X.XXX X.X.X.XoXoX#XOXOX|.$XG m !.7XuX1.n./.~.).Q.q o.T.<X9.8 ].oXoX.X XOXOXXX X@XXX@XoXXXOX X.X",
"OXOX+XoX'. X+X+X#X X`.XXOXOX+XM.x p 7.<X7Xk )..X.X.X/.% h o.%.7.n L..X XoX.X+XtX.XoX X XOXOX+XXX+X X",
" X.X.XoX.X XOXtX+X+X#X X XOX.Xz h %.;.} P < ].oX@X`.E.% ! 8.8.X.d C..XoX+X.X+X+X.X.X.XoXOX#X+XOX X+X",
"#X X.X.X.X+XtXOX+X+X+X XXX XA.$ & X ..l.q.d ].'.XX'./.+ % = = 1 :.l ).#X|.+XtX+XoX'..X.X XOX+X.X.XOX",
" X XoX+X+X}.(.~.~.^.^.^.P.S.N 4 8 q ; ; : % <.S.S.S.B + 8 i u x ' ' ' P.P.}.}.~.@X@XyX@X@X@XXXOXXXOX",
".X X+X X X^.S.S.S.S.b.S.S.b.y 4 + 4 + + @ + ' b.S.S.F 4 4 7 4 7 7 u N Z.b.b.b.b.b.~.~.XXOXOXOXXX X X"
};
