/* XPM */
static char *_6107e4b74154d629548a20c492989b6cHFi8hPZpQCoSXkm[] = {
/* columns rows colors chars-per-pixel */
"50 50 15 1 ",
"  c #7F8286",
". c #818488",
"X c #828589",
"o c #84878B",
"O c #85888C",
"+ c #888B8F",
"@ c #898C8F",
"# c #8A8D91",
"$ c #8C8F93",
"% c #8D9093",
"& c #8E9194",
"* c #909397",
"= c #919497",
"- c #939699",
"; c #95989B",
/* pixels */
"   #$$$$$$$$$$$$$$$$$$$$$   #$$$$$$$$$$$$$$$$$$$$$",
"   #$$$$$$$$$$$$$$$$$$$$$   #$$$$$$$$$$$$$$$$$$$$$",
"   #$$$$$$$$$$$$$$$$$$$$$   #$$$$$$$$$$$$$$$$$$$$$",
"   #$$$$$$$$$$$$$$$$$$$$$   #$$$$$$$$$$$$$$$$$$$$$",
"   #$$$$$$$$$$$$$$$$$$$$#   #$$$$$$$$$$$$$$$$$$$$$",
"   #$$$$$$$$$$$$$$$$$$$$$   #$$$$$$$$$$$$$$$$$$$$$",
"   *--&$$$$$$$$$$$$$$$$$$   ---&$$$$$$$$$$$$$$$$$$",
"   -;;&$$$$$$$$$$$$$$$$$$   -;;&$$$$$$$$$$$$$$$$$$",
"   -;;&$$$$$$$$$$$$$$$$$$   -;;&#&$$$$$$$$$$$$$$$$",
"   O+OOoooooOXooooooooooo   OO+OOXoooooooooooooooo",
"                                                  ",
"                                   .              ",
"OOOOOOOOOOOOX  XOOOOOOOOOOOOoOOOOO###o  XoOOoOOOOO",
"$$$$$$$$$$$$O  o$$$$$$$$$$$$$$$$$$*;;#  o$$$$$$$$$",
"$$$$$$$$$$$$O  o$$$$$$$$$$$$$$$$$$-;;#  o$$$$$$$$$",
"$$$$$$$$$$$$O  o$$$$$$$$$$$$$$$$$$&-*+  o$$$$$$$$$",
"$$$$$$$$$$$$o  o$$$$$$$$$$$$$$$$$$$$$O  o$$$$$$$$$",
"$$$$$$$$$$$$o  o$$$$$$$$$$$$$$$$$$$$$O  o$$$$$$$$$",
"$$$$$$$$$$$$o  o&&&$$$$$$$$$$$$$$$$$$O  o$$$$$$$$$",
"$$$$$$$$$$$$O  +;;-$$$$$$$$$$$$$$$$$$O  o$$$$$$$$$",
"$$$$$$$$$$$$o  +;;-$$$$$$$$$$$$$$$$$$O  o$#&$$$$$$",
"########$###o  +--*##################O  X#########",
"                                        .         ",
"                                                  ",
"                                                  ",
"   #$$$$$$$$$$$$$$$$$$$$$   -;;&$$$$$$$$$$$$$$$$$$",
"   #$$$$$$$$$$$$$$$$$$$$$   -;;&$$$$$$$$$$$$$$$$$$",
"   #$$$$$$$$$$$$$$$$$$$$$   *;;&$$$$$$$$$$$$$$$$$$",
"   #$$$$$$$$$$$$$$$$$$$$$   $$$&$$$$$$$$$$$$$$$$$$",
"   #$$$$$$$$$$$$$$$$$$$$$   #$$$$$$$$$$$$$$$$$$$$$",
"   #$$$$$$$$$$$$$$$$$$$$$   $$$$$$$$$$$$$$$$$$$$$$",
"   *--&$$$$$$$$$$$$$$$---   #$$$$$$$$$$$$$$$$$$$$$",
"   -;;&$$$$$$$$$$$$$$&;;;   #$$$$$$$$$$$$$$$$$$$$$",
"   -;;&$$$$$$$$$$$$$$$;;;X  #$$$$$$$$$$$$$$$$$$$$&",
"   o++oooooooooooooooo+Oo   ooooooooooooooooooooOX",
"                        X                         ",
"                                                  ",
"OoOOOOOOoo+oo  o###oOOOoOXOOOOOOOoOOOX  X###OOOOOO",
"$$$$$$$$$$$$o  o;;-$$$$$&$$$$$$$$$$$$O  O;;-$$$$$$",
"$$$$$$$$$$$$o  +;;-$$$$$#&$$$$$$$$$$$O  +;;-$$$$$$",
"$$$$$$$$$$$$o  o-**$$$$$$$$$$$$$$$$$$O  O--*$$$$$$",
"$$$$$$$$$$$$+  o$$$$$$$$$$$$$$$$$$$$$X  O$$$$$$$$$",
"$$$$$$$$$$$$o  o$$$$$$$$$$$$$$$$$$&$$O  X&$$$$$$$$",
"$$$$$$$$$$$$O  o$$$$$$$$$$$$$$$$$$&&&O  O&&&$$$$$$",
"$$$$$$$$$$$$O  o$$$$$$$$$$$$$$$$$$-;;#. O;;-$$$$$$",
"$$$$$$$$$$$$O  o$$$$$$$$$$$$$$$$$$-;;#  +;;-$$$$$#",
"##########$#o  o##################&--+  O--*######",
"                                                  ",
"                                                  ",
"                                                  "
};
