/* XPM */
static char *_641229420904[] = {
/* columns rows colors chars-per-pixel */
"50 50 79 1 ",
"  c #E66716",
". c #E66916",
"X c #EB6C16",
"o c #F26E17",
"O c #F66F18",
"+ c #EF7614",
"@ c #ED7D11",
"# c #F17E12",
"$ c #FF7C17",
"% c #F77018",
"& c #FF7419",
"* c #FF7818",
"= c #F17515",
"- c #EE860F",
"; c #EF8A0E",
": c #F08F0D",
"> c #FF950F",
", c #F49D0A",
"< c #FE9C0D",
"1 c #EE8211",
"2 c #F18211",
"3 c #FF8315",
"4 c #FF8A13",
"5 c #FF9011",
"6 c #F7AC07",
"7 c #F8AF06",
"8 c #F5A508",
"9 c #FEA40B",
"0 c #FFAE08",
"q c #FEB407",
"w c #F0BF00",
"e c #FEBC04",
"r c #FFB008",
"t c #F2C200",
"y c #FDC501",
"u c #FECB00",
"i c #F2C40B",
"p c #F7C80B",
"a c #F9CA0F",
"s c #F2C512",
"d c #F7CA15",
"f c #F1C71C",
"g c #F6CB1C",
"h c #F2C924",
"j c #F2CB2B",
"k c #F3CD37",
"l c #F3CF3C",
"z c #F4D042",
"x c #F4D34C",
"c c #F5D454",
"v c #F5D75E",
"b c #F6D861",
"n c #FEDF64",
"m c #F6DB6C",
"M c #F7DD76",
"N c #F7DF7C",
"B c #FFE26E",
"V c #FEE273",
"C c #FEE379",
"Z c #F7E082",
"A c #F8E185",
"S c #FAE38A",
"D c #F9E493",
"F c #F9E69B",
"G c #F9E7A0",
"H c #F9E8A4",
"J c #FAEBAD",
"K c #FAECB3",
"L c #FBEEBB",
"P c #FBF0C3",
"I c #FCF2CB",
"U c #FCF4D1",
"Y c #FDF7DC",
"T c #FDF7E0",
"R c #FDF9E4",
"E c #FEFAEB",
"W c #FEFCF4",
"Q c #FFFFFE",
"! c None",
/* pixels */
"!!!!!!!!!!!!!!!!!!!!!!!!&&!!!!!!!!!!!!!!!!!!!!!!!!",
"!!!!!!!!!!!!!!!!!!!!!!!&&&&!!!!!!!!!!!!!!!!!!!!!!!",
"!!!!!!!!!!!!!!!!!!!!!!&&&&&&!!!!!!!!!!!!!!!!!!!!!!",
"!!!!!!!!!!!!!!!!!!!!!!&&&&*&&!!!!!!!!!!!!!!!!!!!!!",
"!!!!uu!!!!!!!!!!!!!!!&&*&&&&&!!!!!!!!!!!!!!!uu!!!!",
"!!!!!uuu!!!!!!!!!!!!!&&&&&&&&!!!!!!!!!!!!!uuuu!!!!",
"!!!!!uuuu!!!!!!!!!!!!&&&*&&&&&!!!!!!!!!!!uuuu!!!!!",
"!!!!!!uuuuu!!!!!!!!!&&&&&&&&&&!!!!!!!!!uuuuu!!!!!!",
"!!!!!!uuuuuu!!!!!!!!&&&&&&&&&&!!!!!!!!uuuuuu!!!!!!",
"!!!!!!!uuytuu5&&&&&&&&&*&&&&&&&&&&&&3yuuyuu!!!!!!!",
"!!!!!!!!uuttuy<34443$&%oX.X%&&334444euyytu!!!!!!!!",
"!!!!!!!!!uuttuuuyyuuq9-X..X@<qyuyuyyutttu!!!!!!!!!",
"!!!!!!!!!yuutttuuuuuuuu7:;7uuuuuuuuuttyuu!!!!!!!!!",
"!!!!!!!!!*9uywttuuuuuuuuuuuuuuuuuuutttuq3!!!!!!!!!",
"!!!!!!!!!&$quttiittytyuuuuutyttttiittuy3&!!!!!!!!!",
"!!!!!!!!!&*quutSJjwtwwtdVSfttwttfFKsuuy3&!!!!!!!!!",
"!!!!!!!!!&*yuutMQIltwwwxWQMwwwwjLQDiuuu4&!!!!!!!!!",
"!!!!!!!!!!$yuutiFQYcwwwvQQAtwtzUQKstuuu4&!!!!!!!!!",
"!!!!!!!!!!$euuytfLQEMiwmQQDwtcTQIhttuuu3!!!!!!!!!!",
"!!!!!!!!!!3quuttwjUQWAiMQQHimEQTlwttuuy$&!!!!!!!!!",
"!!!!!!!&&&&9uuutwwzRQQGGQQPAWQWvwwttuuq*&&&&!!!!!!",
"!!!!&&&&&&&4uuttwtwvEQQQQQQQQQNtwwwyuu<&&&&&&&!!!!",
"!!&&&&&&&&&+euutwwwtZQQQQQQQQGiwwwwuuu1%&&&&&&&&!!",
"!&&&&&&&&&%.,uupxmZDJWQQQQQQQLDZMcguu7.%&&&&&&&&&!",
"&&&&&&&&&&%.@yuBWQQQQQQQQQQQQQQQQQSuu- X&&&&&&&&&&",
"&&&&*&&&&&X.@yuBQQQQQQQQQQQQQQQQQQVuu; X&*&&&&&&&&",
"!&&&&&&&&&%X,uupxmNZHWQQQQQQWJZNmxiuuq.o&&&&&&&&&!",
"!!&&&&&&&&&=quutwwwtZQQQQQQQQFiwwttuuy1%&&&&&&&&!!",
"!!!!&&&&&&&4uuttwtwmWQQQQQQWQWZtwtwtuu<&&&&&&&!!!!",
"!!!!!!!&&&&<uuttwwxEQQHHQQLNWQWbttttuuq*&&&!!!!!!!",
"!!!!!!!!!!&quuttwkYQQAiMQQGtbRQRztttuue$!!!!!!!!!!",
"!!!!!!!!!!$yuutwhPQEmwwmQQAwtxYQIkttuuy4&!!!!!!!!!",
"!!!!!!!!!&$yuuysJQYctwwvQQMwtwlIQLftuuu4&!!!!!!!!!",
"!!!!!!!!!&*yuutAQIlttwtzWQvwttwjLQFtuuy4&!!!!!!!!!",
"!!!!!!!!!&*euutZHjwtwttpVVdttttwfFDiyuy3&!!!!!!!!!",
"!!!!!!!!!&3euttiittyttuuuuuutttyttittuy4&!!!!!!!!!",
"!!!!!!!!!3ruttttuuuuuuuuyyuuuuuuuuutwtuy4!!!!!!!!!",
"!!!!!!!!!yuyttuuuuuuuuy6--8yuuuuuuuuywtuu!!!!!!!!!",
"!!!!!!!!!uuwtuuyyyyeq<2.   @<qeyuyeyuyttuu!!!!!!!!",
"!!!!!!!!uutyuy5$333$&&&%XXO&&*$333$3ruttyu!!!!!!!!",
"!!!!!!!uuyuuu>&&&&!!&&&&&&&&&&!!&&&&4uuuytu!!!!!!!",
"!!!!!!uutuuu!!!!!!!!&&&&&&&&&&!!!!!!!!!uuuuu!!!!!!",
"!!!!!!uuuu!!!!!!!!!!&&&&&&&&*&!!!!!!!!!!uuuuu!!!!!",
"!!!!!uuuu!!!!!!!!!!!!&&&*&&&&&!!!!!!!!!!!uuuu!!!!!",
"!!!!!uuu!!!!!!!!!!!!!&&&&&&&&!!!!!!!!!!!!!!uuu!!!!",
"!!!!uu!!!!!!!!!!!!!!!&&&&&&&&!!!!!!!!!!!!!!!uu!!!!",
"!!!!!!!!!!!!!!!!!!!!!!&&*&&&!!!!!!!!!!!!!!!!!!!!!!",
"!!!!!!!!!!!!!!!!!!!!!!&&&&&&!!!!!!!!!!!!!!!!!!!!!!",
"!!!!!!!!!!!!!!!!!!!!!!!*&&&!!!!!!!!!!!!!!!!!!!!!!!",
"!!!!!!!!!!!!!!!!!!!!!!!!&&!!!!!!!!!!!!!!!!!!!!!!!!"
};
