/* XPM */
static char *_641229427394[] = {
/* columns rows colors chars-per-pixel */
"50 50 76 1 ",
"  c #E76715",
". c #E76916",
"X c #EB6B16",
"o c #E76B1A",
"O c #F06D17",
"+ c #F46F18",
"@ c #ED7414",
"# c #EC7A13",
"$ c #EA791D",
"% c #F37416",
"& c #FA7617",
"* c #F27B14",
"= c #FD7C16",
"- c #F77018",
"; c #FF7419",
": c #EA7B25",
"> c #EE820F",
", c #EF8B0E",
"< c #F18C0E",
"1 c #F1920D",
"2 c #F39C0A",
"3 c #FE9C0D",
"4 c #EE8310",
"5 c #ED831A",
"6 c #F48312",
"7 c #FC8314",
"8 c #FF8D12",
"9 c #FF9410",
"0 c #F7AC07",
"q c #F9AF06",
"w c #F6A409",
"e c #FFA40B",
"r c #F7A908",
"t c #FFAA09",
"y c #EFBE00",
"u c #FAB306",
"i c #F0BF00",
"p c #FCBC03",
"a c #FBBF1F",
"s c #F1C100",
"d c #FBC501",
"f c #FECB00",
"g c #FECB17",
"h c #FBC01E",
"j c #FDC91D",
"k c #FBC22E",
"l c #FFD527",
"z c #FFD52C",
"x c #F7D035",
"c c #FFD736",
"v c #FFD836",
"b c #F6D039",
"n c #EF9B64",
"m c #EF9E68",
"M c #F09F6B",
"N c #F0A26F",
"B c #F0A370",
"V c #F1A97A",
"C c #F4D144",
"Z c #F8D444",
"A c #F4D248",
"S c #F5D554",
"D c #F5D65A",
"F c #F8E185",
"G c #F9E491",
"H c #F9D7BF",
"J c #F9DAC3",
"K c #FADEC9",
"L c #FBE3D3",
"P c #FEF4DB",
"I c #FEF6E6",
"U c #FFFAE4",
"Y c #FEFBEC",
"T c #FEFCF4",
"R c #FFFFFE",
"E c None",
/* pixels */
"EEEEEEEEEEEEEEEEEEEEEEEE;;EEEEEEEEEEEEEEEEEEEEEEEE",
"EEEEEEEEEEEEEEEEEEEEEEE;;;;EEEEEEEEEEEEEEEEEEEEEEE",
"EEEEEEEEEEEEEEEEEEEEEE;;;;;;EEEEEEEEEEEEEEEEEEEEEE",
"EEEEEEEEEEEEEEEEEEEEEE;;;;;;EEEEEEEEEEEEEEEEEEEEEE",
"EEEEEEEEEEEEEEEEEEEEE;;;;;=;;EEEEEEEEEEEEEEEEEEEEE",
"EEEEEEEEEEEEEEEEEEEEE;;;;;;;;EEEEEEEEEEEEEEEEEEEEE",
"EEEEEEEEEEEEEEEEEEEEE;;;;;;;;EEEEEEEEEEEEEEEEEEEEE",
"EEEEEEEEEEEEEEEEEEEE;;;;;;;;;;EEEEEEEEEEEEEEEEEEEE",
"EEEEEEEEEEEEEEEEEEEE;;;;;;;;;;EEEEEEEEEEEEEEEEEEEE",
"EEEEEEEEEffEE;;;;;;;;;;;&;;;;;;;;;;;;EEffEEEEEEEEE",
"EEEEEEEEEfffe;;&;;;;;;-OXXX;;;;;;;;;=tfffEEEEEEEEE",
"EEEEEEEEEEdffq7-;;;;;+..oo..-;;;;;-6pffdEEEEEEEEEE",
"EEEEEEEEEE9fffp4O-;;-.......X-;;+O4pfff9EEEEEEEEEE",
"EEEEEEEEE;;efsdp,@*7#o .Nn .o#7*@1ddsfe;EEEEEEEEEE",
"EEEEEEEEE;;&qfsddppdpq15JH51qddpdddsfr=;;EEEEEEEEE",
"EEEEEEEEE;;;#pfsdffffffjPPjffffffssfu@;;;EEEEEEEEE",
"EEEEEEEEE;;;O4ddysddssfzYUzdsddsssdp#O;;;EEEEEEEEE",
"EEEEEEEEE;;;-XufdysssssxYYxsssssydf0X&;;;EEEEEEEEE",
"EEEEEEEEEE;;;&pfsssssyyCTTCssssssffp&;;;EEEEEEEEEE",
"EEEEEEEEEE;;;=dfssssssyCTTCsssssyffp&;;;EEEEEEEEEE",
"EEEEEEE;;;;;;%uffsssssySRRSsssssidfu%-;;;;;EEEEEEE",
"EEEE;;;;;;;&..wfdssssyySRRSyssssiffr.X-;;;;;;;EEEE",
"EE;;;;;;;;;X. ,ffsssysySRRSyyyyssff,..X;;;;;;;;;EE",
"E;;;;;;;;;-.. $alCAAAACFRRFCAAAAZla$...-;;;;;;;;;E",
";;;;;;;;;;O.oVKPITTTTTTTRRTTTTTTTUPJM..X;;;;;;;;;;",
";;;;;;;;;;OooVLIYTRRRRRRRRRRRRRRTYILm..O;;;;;;;;;;",
"E;;;;;;;;;-...:kxCSDDDDGRRGSDDDSZck:...+;;;;;;;;;E",
"EE;;;;;;;;-X..4dfsyysyySRRSyysyysff,...;;;;;;;;;EE",
"EEEE;;;;;;;&XowffssssysSRRSysssysdf2oX&;;;;;;;EEEE",
"EEEEEEE;;;;;-OufssssysySRRSssysssdfu@;;;;;;EEEEEEE",
"EEEEEEEEE;;;;=pfsssssysCTTCyysyssffp;;;;EEEEEEEEEE",
"EEEEEEEEEE;;;&ffssssysyCTTCyssyssffp=;;;EEEEEEEEEE",
"EEEEEEEEE;;;;@qfdyssssybYYbsssssssfu@-;;;EEEEEEEEE",
"EEEEEEEEE;;;-#ddssdssddzUUzfddsdssfp#-;;;EEEEEEEEE",
"EEEEEEEEE;;;#udsdfffffflPPjffffffssdrO;;;EEEEEEEEE",
"EEEEEEEEE;;=rfssddffduw5KH52udffdfssfw-;;EEEEEEEEE",
"EEEEEEEEE;;3fsfd1#67*X..VB .X*8*#2dddf9;;EEEEEEEEE",
"EEEEEEEEEE8ddfu,O-;;-...oo..X-;;-X,dddd8EEEEEEEEEE",
"EEEEEEEEEEdffu6-;;;;;-..o..X-;;;;;-7pffdEEEEEEEEEE",
"EEEEEEEEEfffe=;;;;;;;;;:XX@-;;;;;;;;=tfffEEEEEEEEE",
"EEEEEEEEEffEE;;;;;;;;;;;;;;;;;;;;;;;;EEffEEEEEEEEE",
"EEEEEEEEEEEEEEEEEEEE;;;;;;;;;;EEEEEEEEEEEEEEEEEEEE",
"EEEEEEEEEEEEEEEEEEEE;;;;;;;;;;EEEEEEEEEEEEEEEEEEEE",
"EEEEEEEEEEEEEEEEEEEEE;;;;;;;;EEEEEEEEEEEEEEEEEEEEE",
"EEEEEEEEEEEEEEEEEEEEE;;;;;;;;EEEEEEEEEEEEEEEEEEEEE",
"EEEEEEEEEEEEEEEEEEEEE;;;;;;;;EEEEEEEEEEEEEEEEEEEEE",
"EEEEEEEEEEEEEEEEEEEEEE;;;;;;EEEEEEEEEEEEEEEEEEEEEE",
"EEEEEEEEEEEEEEEEEEEEEE;;=;;;EEEEEEEEEEEEEEEEEEEEEE",
"EEEEEEEEEEEEEEEEEEEEEEE;;;;EEEEEEEEEEEEEEEEEEEEEEE",
"EEEEEEEEEEEEEEEEEEEEEEE;;;EEEEEEEEEEEEEEEEEEEEEEEE"
};
