/* XPM */
static char *_639818767102[] = {
/* columns rows colors chars-per-pixel */
"50 50 215 2 ",
"   c #1F1F1D",
".  c #261F08",
"X  c #231F15",
"o  c #2A230C",
"O  c #272205",
"+  c #25221C",
"@  c #272219",
"#  c #1E1D2B",
"$  c #221E27",
"%  c #1F2120",
"&  c #212123",
"*  c #22212B",
"=  c #5D5231",
"-  c #766C47",
";  c #7C735A",
":  c #7B7966",
">  c #787E75",
",  c #876E3D",
"<  c #996E3B",
"1  c #9B703C",
"2  c #977039",
"3  c #A9763C",
"4  c #B87C3A",
"5  c #A16D35",
"6  c #C57E39",
"7  c #8B6E4C",
"8  c #876E4A",
"9  c #926D44",
"0  c #956E48",
"q  c #8B7045",
"w  c #8B714C",
"e  c #85724C",
"r  c #937144",
"t  c #91704A",
"y  c #9B7142",
"u  c #847152",
"i  c #877355",
"p  c #836D55",
"a  c #B87E43",
"s  c #AC7942",
"d  c #817B67",
"f  c #817D71",
"g  c #75827C",
"h  c #7B8275",
"j  c #B9813D",
"k  c #CD8C0A",
"l  c #D7970D",
"z  c #CD8C1A",
"x  c #CE8818",
"c  c #D28B1C",
"v  c #D1861A",
"b  c #D49413",
"n  c #DA9418",
"m  c #D48C0D",
"M  c #E39E1F",
"N  c #F0B11C",
"B  c #CE8626",
"V  c #CD8A24",
"C  c #CE8A2A",
"Z  c #CB852A",
"A  c #D28624",
"S  c #D38A24",
"D  c #D2852C",
"F  c #D3892B",
"G  c #D88A28",
"H  c #DC9921",
"J  c #CC8533",
"K  c #CC8935",
"L  c #CC853B",
"P  c #C8873B",
"I  c #D18433",
"U  c #D2853A",
"Y  c #D38839",
"T  c #E19C23",
"R  c #E5A323",
"E  c #E9A624",
"W  c #FABC26",
"Q  c #FEC603",
"!  c #FECC02",
"~  c #FEC60E",
"^  c #FDCB0B",
"/  c #F6CA03",
"(  c #FDD003",
")  c #FBD005",
"_  c #FEC614",
"`  c #FDCA14",
"'  c #FEC51C",
"]  c #F4CD1B",
"[  c #FDCA1B",
"{  c #F6CC14",
"}  c #F6CB1B",
"|  c #EEC92A",
" . c #FEC423",
".. c #F5CD25",
"X. c #FFC823",
"o. c #FEC32B",
"O. c #F1CB2C",
"+. c #EECA36",
"@. c #F1CA37",
"#. c #BA8243",
"$. c #BA8448",
"%. c #818274",
"&. c #BDB175",
"*. c #C48543",
"=. c #CA8641",
"-. c #C4864B",
";. c #C78948",
":. c #C08750",
">. c #EACA46",
",. c #F7D34D",
"<. c #F1CE40",
"1. c #FEDE66",
"2. c #FFE978",
"3. c #758382",
"4. c #788789",
"5. c #758E99",
"6. c #74939D",
"7. c #719093",
"8. c #6D9396",
"9. c #5E95AF",
"0. c #5D95B4",
"q. c #5C96BB",
"w. c #5A9ABC",
"e. c #5799BC",
"r. c #6B93A3",
"t. c #6494AE",
"y. c #6794A7",
"u. c #7294A6",
"i. c #6395B3",
"p. c #6997B1",
"a. c #6299B4",
"s. c #649BBB",
"d. c #6699BC",
"f. c #6E8EA5",
"g. c #5BA0BD",
"h. c #6BA0BE",
"j. c #76A4BC",
"k. c #3E9DDB",
"l. c #3F9BD4",
"z. c #3EA1DE",
"x. c #3D9EE2",
"c. c #3FA1E3",
"v. c #4C9BCD",
"b. c #4A9AC9",
"n. c #5599C4",
"m. c #5A9BC3",
"M. c #529CCB",
"N. c #5A9CCA",
"B. c #5596C6",
"V. c #469CD4",
"C. c #4B9CD3",
"Z. c #439DDB",
"A. c #4A9DD9",
"S. c #4897DA",
"D. c #539CD3",
"F. c #659CC1",
"G. c #45A0D5",
"H. c #44A1DC",
"J. c #4BA2DA",
"K. c #52A3D7",
"L. c #56A0CF",
"P. c #6CA4C1",
"I. c #76A9C9",
"U. c #6DB2DA",
"Y. c #7BB3D5",
"T. c #7BB1CD",
"R. c #429EE1",
"E. c #44A1E1",
"W. c #6CB5E3",
"Q. c #7EC0E2",
"!. c #818C85",
"~. c #80908C",
"^. c #9EB6BD",
"/. c #98B4B9",
"(. c #99AEB1",
"). c #A1ACAC",
"_. c #A5B9AD",
"`. c #A5B5B5",
"'. c #A9B6B6",
"]. c #A5B9B5",
"[. c #A9B8B4",
"{. c #A5B5BB",
"}. c #AAB6BA",
"|. c #A5B9BC",
" X c #ABB9BA",
".X c #B1B4B8",
"XX c #C2B781",
"oX c #FFF58A",
"OX c #FFF493",
"+X c #FFF59B",
"@X c #FFE880",
"#X c #DDD2A7",
"$X c #F4E3A7",
"%X c #FFF4A3",
"&X c #FFF3AC",
"*X c #FFF4B4",
"=X c #F7EAB3",
"-X c #8AB8CA",
";X c #9DB9C4",
":X c #94BBCC",
">X c #9ABBCD",
",X c #9AB5C7",
"<X c #82B4D4",
"1X c #85BADA",
"2X c #8BBBD3",
"3X c #94BBD1",
"4X c #97BBD3",
"5X c #8EAFC3",
"6X c #A3B6C2",
"7X c #A2B9C4",
"8X c #ABB8C1",
"9X c #83BFE1",
"0X c #85C1D8",
"qX c #9AC1D2",
"wX c #81C1E6",
/* pixels */
"_.]..X.X'._.}.}.`._.[.[. X'.{.6X:X1XwXW.K.G.z.k.z.z.c.z.H.K.U.wX0X:X7X{.}.[.'.'.}.{.}.`. X|.].].].}.",
"].].}.}.[._.}.8X'.[.[.(.6X7X>X3XP.m.N.K.G.V.H.k.E.k.k.Z.H.C.M.e.e.P.2X>X;X|.}.'.}.}.`. X).`.].`.].'.",
"`.{.|.6X{.{.`.{.}.{.].^.>X1Xm.M.v.C.V.V.l.H.S.R.R.Z.R.Z.Z.A.G.v.V.v.b.n.Y.4X|.[.'.}.'.'.}.}.{.}.}.}.",
"|.{.|.}.`.}.}.}.8X7X;X3Xs.N.A.A.D.B.n.e.i.p.p.p.i.i.i.i.a.0.q.m.n.M.A.A.B.s.:X;X|.}.}.'..X}.8X}.}.`.",
"'.}.'.'.'.}.}.{.^.4XT.B.D.V.S.D.i.u.4.%.i r 0 0 9 0 9 2 q u : 4.r.0.M.V.A.L.n.I.,X7X^.|.[. X}.}.'.'.",
"'.'.`.`.'.'.{.6X4Xs.M.C.v.M.d.y.4.p q 1 4 L Y 6 I I D I P 4 1 w ; g f.s.L.C.C.B.F.4X:X/.[.[.}.}.'.`.",
"}. X`.{.}.{.7X4Xm.M.V.v.e.r.h u y a *.P P J I G A D I I I L =.-.#.2 i h y.e.C.A.D.B.-X/.).).).}.}.|.",
"'.[.`.6X{.6X3XF.M.V.v.s.7.: 2 j L B Z V v z n T M M T H v z F A J K j , : 8.i.D.A.C.w.5X(.(.`.`.}.'.",
"`.[.[.{.6X4XF.v.V.b.t.g w 3 ;.J C z l N  .' [ ` ` _ [ [ ' X.W b S D U -.s i 3.p.v.Z.v.e.5X).(.{.'.'.",
"'. X`.6X,XF.M.V.b.w.g e #.D F S b o.X.` ^ ! ! ( ! ! ! ( ! ^ _ ' W n v F I #.7 3.i.L.G.v.d.5X/.{.'.{.",
".X'. X;X<XD.C.C.w.4.w ;.P F k  .X.` Q ~ ! ! ! ! ! ! ( ( ! ! Q ^ ` ' W b 6 G =.7 4.d.b.C.M.T./.{.`.}.",
".X}.^.qXe.C.C.m.4.i -.K B b  .^ ! ! Q ! ! Q ! ! ! ! ! ! ! ! ! ! ( ! ~ o.l v U :.p 4.q.v.C.q.5X6X{.[.",
"'.|.3XF.v.C.N.8.e #.U G b W ` ^ ! ! ! Q ! ! ! Q Q ! ! ! ! ! ( ! ! ! ! ^ ' b F L a 7 5.B.V.K.d.:X|.}.",
"`.,X1XM.V.M.y.: 3 I G x  .` ^ ! ! ! ! ! ! ( ! ! ! ! ! ! ! ! ! ! ! ! ! ! ^ ' z Z U 3 : u.M.V.M.2X;X'.",
"}.>Xn.V.V.q.h r *.F m  .` ! ! ! ! ( ! ! ! ! ! ) ! Q ! ! ! ! ! ( ( ( ! Q Q ` X.b A =.0 > 0.G.V.N.;X{.",
"6X3XM.A.M.y.u j K v  .` Q ! ! ( ( ! ! ( ! ! ! ! ^ ! ! ( ! ! ! ! ! ! ^ ^ ! ! ` W z K 4 e r.v.Z.D.3X^.",
"3XF.D.D.i.g 1 K C b ' Q ! ! ! ( / ) ) ) ! ! ! ! ! ! Q ^ ! ) ! ! ! ! ! ! ! ! ! ' b V J < g a.C.V.h.qX",
"0Xm.D.B.6.; a Z z o.` ! ! ! ( / / ) ) ! ! ^ { ` ] ] [ { ^ ) ! ! ! ! ! ! ( ! ! ^ o.b J a i 7.M.A.m.2X",
"Q.n.A.m.!.q ;.Z b ..~ ! Q ( ! ( ! ! ! ! ^ [ @.>.1.1.,.| [ ! ! ! ! ! ! ! ! ! ! ^ ' l A -.r 4.n.S.m.Y.",
"U.v.G.q.d 1 *.V W ` ^ ! ! ! ! ( ! ! ! ^ [ @.OX%X*X&X+XoX+.{ ^ ! ! ! ! ! ! ! ! Q ~ W F *.2 : 0.A.L.W.",
"K.V.k.0.u 4 P S  .^ Q ! ) Q ( ! ! ! ( { +.OXXXO o O O &.OX>.[ ! ! ! ! ! ! ! ! Q Q  .S L 4 e i.A.v.K.",
"H.A.H.a.0 L I c [ ! ! ! ! ! ! ! Q ! ( ..2.$X. & %   + o $X2.] ! ! ! ! ! Q ! ! ! ! ' c I J q a.k.H.H.",
"Z.Z.H.a.7 U D n ' ! ! Q ! ! ! ! ! ^ ^ | %X= @ % & * % @ = %X| ^ ! ! ! ! ! ! ! ! ! _ H D K q i.Z.Z.k.",
"Z.Z.Z.i.0 U A E [ ) ! ! ^ ! ! ! ! ! ! | &X. X & * * * + O &X| / ! ! ! ! ! ! ! ! ( { R F Z e a.Z.Z.k.",
"R.R.Z.i.t J B E ' ! ! ! ! Q ) ! / ( / | +X- @ & # * $ @ - %XO.^ ! ! ! ! ! ! ! ! / [ E F J t 9.H.k.E.",
"R.R.Z.a.r D v E _ ! ! ! ( ! ! ) ( ! ( ] 2.=XO & * * $ X =X@X..! ( ! ! ! ! ! ! ! / ` R F I 0 i.k.Z.H.",
"x.x.Z.t.9 D A R [ ! ! ! ! ! ! ! ! ! ) [ +.oX#Xo % & + #XOX+._ ! ! ! ! ! ! ! ! ! ( ` R D I 9 a.A.k.x.",
"x.Z.H.t.9 I D H ` ! ( ! ! ! ! ( ! ! ) / ] >.*Xo   + @ *X>.` ! ! ! ! ( ! ! ! ! ! ! ` n I L 0 t.A.E.x.",
"k.H.H.i.q J I c ' ! ) ) ! ! ! ! ! ! ! / ^ +.*Xo X @ o *X+.^ / ! ! ! ! ! ! ! ! ! ! X.c K =.i i.Z.H.E.",
"J.A.A.a.u 4 L A X.! ! ! ( ! ! ! ! ! ! ^ ) | +X- O O , OX..! ! ! ! ! ! ! ! ! ! ! Q X.S L 4 ; i.A.C.K.",
"W.v.C.0.d 1 =.S W ^ Q ! ! ! ! ! ! ! ! ! ^ [ ,.oX&X&XOX,.{ ( / ! ! ! ! ! ! ! ( ! ^ N S P 1 : q.C.M.U.",
"wXn.C.m.!.q -.A l ' ` ! ! ! ! ! ! ! ! ! ( / ] +.2.2.<...^ ( ( / ! ! ! ! ! ! ! ^ ' l D ;.q ~.e.C.N.1X",
"0Xe.C.M.6.; a Z x W ` ( ! ( / ( ( ! ! ! ! ! Q { { ] { ) ! ! Q ! / ) ( ! ! ( ! ` o.z I $.; 6.v.C.q.2X",
":Xh.v.C.a.g < J D n ' Q / ! ( ! ! ! ! ! ! ! ! ! ( ! ! ! ! ! ! ! / ( ^ ! ! Q ^ X.b C K 1 g 9.C.C.I.4X",
"7X3XM.S.D.f., j Y A W _ ^ ! ! ! Q ! ! ! ! Q ! ! ! ! ! ! ! ! ! ! ! ! ! ( ^ Q _ o.z K 4 w u.M.V.v.-X7X",
".X>XN.A.A.s.%., *.G m W ^ ! ! Q ! ! ! ! ! ! ! ! ! ! ! ! ! ! ! ! ^ ! ! Q ! `  .k F *.1 %.0.V.V.N.:X|.",
"}.,XY.M.A.D.y.h 3 I 6 n  .^ Q ! ( ! ! ! ! ! ! ! ! ! ! ! ! ! ! ! ! ! ^ Q ` _ b C K 3 : y.M.C.N.<X;X{.",
"`.{.3Xs.v.V.e.8.q 6 G A l ' { ! ! ( ( ! ! ! ! ! ! ! ! ( ! ! ! ! ! ^ Q ` ' l V P #.8 5.e.C.v.s.:X{.[.",
"}.}.|.:Xm.G.v.9.3.w :.U K n o.^ Q ! ! ! ! Q ! ! ! ! ! ( ! ! ! ! ! ! _ X.b S J -.i g s.v.v.m.3X7X{.'.",
"}.'.}.;XT.n.G.v.p.3.w $.P A k o.' ` ^ ^ Q ! ! ! ! ! ! / ( ! ! ! ` [ o.k A K $.w g p.v.C.b.T.;X}.}.[.",
"`.`.`.{.>XF.G.G.D.a.4.u #.J V c l o.' { ! ! ! ! Q ! ! ! ( ! ^ ` o.b z F J #.u 4.i.v.A.C.s.:X|.}.'.'.",
"{.`.`.'.6X4Xe.G.S.D.a.4.8 3 P J S x l W [ ' ` _ _ [ ` _ [ [ N l z C P *.s e 4.0.v.A.C.m.4X7X{.`.'.'.",
"}.}..X'.8X,X-Xe.v.C.v.s.5.d r 4 U A A G V c M R E E E T c c S A Z Y 4 y : 5.0.M.A.C.F.4X;X{.`.].{.}.",
"}.}..X_.`.|./.5Xm.v.C.D.q.u.> w 5 #.=.6 I I C C V V G I U U =.;.$.y 7 f u.q.C.C.C.m.4X,X{.`.`.].].}.",
"}.}.'..X'.[.`.7X>Xd.n.v.C.M.q.u.> i 0 5 4 J J Z J Z I J L 4 5 9 ; h u.e.n.V.C.M.s.4X;X{.}..X'.[.'.'.",
"}.`.'.'.'.'.'.}.|.;X<Xm.M.V.A.v.i.5.!.d w q q q w r 0 9 w u d !.6.a.K.V.G.v.n.Y.:X;X{.`.'.'.'.}.|.'.",
"/.{.'.'.}.`.}.{.6X|.;X:Xs.b.A.k.C.v.n.0.a.a.a.a.0.i.p.t.t.9.w.e.b.C.A.V.N.d.3X;X|.|.`.].'.'..X}.|.}.",
"].`.}.}.}.}.}.8X|.|.[.|.:X<XN.C.G.V.V.G.V.k.H.Z.Z.Z.Z.Z.k.k.G.V.C.b.b.N.<X4X7X}.'.'.`.[.[.`.}.8X'.'.",
"[.[.{.}.[.'.}.}.}.|.'.`.7X;X;X3Xs.w.e.n.l.c.H.k.Z.Z.E.R.E.k.M.g.a.j.-X>X;X^.{.'.'.].[.`.'.'.}.{.}.'.",
"`.}.'.}.`.}.[.`.'.{.'.`.`.}.{.^.qX0X-XU.J.c.k.Z.Z.R.R.x.x.E.U.<X:X^.7X|.{.{.'.'.'.[.[.`.'.'.[.{.'.`."
};
