/* XPM */
static char *_639818523687[] = {
/* columns rows colors chars-per-pixel */
"50 50 220 2 ",
"   c #3E3A2A",
".  c #383529",
"X  c #423B2D",
"o  c #483E2E",
"O  c #443D31",
"+  c #4B422E",
"@  c #53462C",
"#  c #5B4C2D",
"$  c #5A4927",
"%  c #5E512D",
"&  c #5E5227",
"*  c #454133",
"=  c #4B4434",
"-  c #4C463A",
";  c #4E493D",
":  c #46433A",
">  c #544631",
",  c #544A34",
"<  c #5A4A33",
"1  c #534C3C",
"2  c #584C39",
"3  c #5D523A",
"4  c #595038",
"5  c #694D25",
"6  c #62532B",
"7  c #68592E",
"8  c #7A5323",
"9  c #76592A",
"0  c #635336",
"q  c #6C5A34",
"w  c #64553B",
"e  c #6A5539",
"r  c #6C5B3C",
"t  c #705638",
"y  c #745A3A",
"u  c #795D3C",
"i  c #6A4F2D",
"p  c #7C642B",
"a  c #796328",
"s  c #73623E",
"d  c #7D613D",
"f  c #7D6534",
"g  c #6F602B",
"h  c #4C4A44",
"j  c #554F41",
"k  c #564F44",
"l  c #5B5443",
"z  c #53524B",
"x  c #5E594B",
"c  c #595345",
"v  c #5D5D5A",
"b  c #635A45",
"n  c #635C4B",
"m  c #625744",
"M  c #735F41",
"N  c #635D50",
"B  c #6D634B",
"V  c #746342",
"C  c #7C6541",
"Z  c #7C6A45",
"A  c #756A4B",
"S  c #666153",
"D  c #6B6452",
"F  c #6F6855",
"G  c #66635B",
"H  c #6E695B",
"J  c #736D5C",
"K  c #756B53",
"L  c #7A715A",
"P  c #636263",
"I  c #6E6F6F",
"U  c #746E63",
"Y  c #7C7664",
"T  c #7C7868",
"R  c #7B7A75",
"E  c #845B28",
"W  c #866B27",
"Q  c #8C7323",
"!  c #977929",
"~  c #856C31",
"^  c #8B7334",
"/  c #967433",
"(  c #976F2C",
")  c #846C45",
"_  c #82714B",
"`  c #8C7449",
"'  c #8D794B",
"]  c #877046",
"[  c #947A4C",
"{  c #92764D",
"}  c #847452",
"|  c #877857",
" . c #827D6B",
".. c #867B65",
"X. c #827E76",
"o. c #B18F1F",
"O. c #B8941E",
"+. c #AD8D1E",
"@. c #9F8126",
"#. c #A78725",
"$. c #B8922C",
"%. c #B99526",
"&. c #AC8A36",
"*. c #B58D30",
"=. c #B79336",
"-. c #B28C2F",
";. c #C39D1C",
":. c #D5AB1B",
">. c #C6A01B",
",. c #E7B819",
"<. c #F0BF17",
"1. c #C29A2E",
"2. c #CCA028",
"3. c #DEAC25",
"4. c #E3B026",
"5. c #FAC815",
"6. c #F8C71B",
"7. c #EEC016",
"8. c #FBCA25",
"9. c #F7CA29",
"0. c #FACF38",
"q. c #FAD039",
"w. c #9D8355",
"e. c #9B845A",
"r. c #97845B",
"t. c #9F854F",
"y. c #A38652",
"u. c #AB8C53",
"i. c #A98D57",
"p. c #B08E59",
"a. c #B29355",
"s. c #BA975D",
"d. c #B99858",
"f. c #B09249",
"g. c #8A836D",
"h. c #898068",
"j. c #978864",
"k. c #8A8576",
"l. c #918B74",
"z. c #938D7B",
"x. c #9B957E",
"c. c #97927A",
"v. c #A69368",
"b. c #B09769",
"n. c #BCA36D",
"m. c #C29D5D",
"M. c #C8A45E",
"N. c #C8A440",
"B. c #C29E61",
"V. c #CCA563",
"C. c #C8AF67",
"Z. c #D4AC64",
"A. c #D9AE64",
"S. c #D1A764",
"D. c #DBB365",
"F. c #DFB669",
"G. c #CDB17A",
"H. c #E1B568",
"J. c #E5B96B",
"K. c #ECBE6C",
"L. c #F2CE55",
"P. c #FCD864",
"I. c #F8D977",
"U. c #EBD17B",
"Y. c #888682",
"T. c #9C9684",
"R. c #9E9883",
"E. c #9A968A",
"W. c #989893",
"Q. c #948F86",
"!. c #A39D8B",
"~. c #A49E85",
"^. c #A6A08F",
"/. c #ABA48D",
"(. c #A6A086",
"). c #A7A190",
"_. c #ABA493",
"`. c #A9A697",
"'. c #B3AD94",
"]. c #B2AC98",
"[. c #BEB89F",
"{. c #B8B29B",
"}. c #BFAD84",
"|. c #A4A2A3",
" X c #B3AFA5",
".X c #BBB6A1",
"XX c #BAB6A5",
"oX c #BAB9B9",
"OX c #C7B684",
"+X c #C5BB9F",
"@X c #C3BEA4",
"#X c #C3BEAB",
"$X c #D9C487",
"%X c #D9C794",
"&X c #EDD58B",
"*X c #F5DA85",
"=X c #E4CE8F",
"-X c #CAC4AB",
";X c #D0CAAF",
":X c #CAC6B4",
">X c #D2CCB2",
",X c #D1CDBA",
"<X c #DCD5BA",
"1X c #DBD5B9",
"2X c #E2DCBE",
"3X c #DAD7C3",
"4X c #CDCDCC",
"5X c #E4DEC1",
"6X c #E2DECB",
"7X c #E6E1C6",
"8X c #E7E2CA",
"9X c #EAE5CD",
"0X c #EBE2C7",
"qX c #EDEAD5",
"wX c #EBE8D6",
"eX c #F0ECD9",
"rX c #FCF5DA",
"tX c #E3E3E3",
"yX c #E9EAE8",
"uX c None",
/* pixels */
"uXuXuXuXuXuXuXuXuXuXuXuXuXuXuXuXuXuXuXuXuXuXuXX X X *   uXuXuXuXuXuXuXuXuXuXuXuXuXuXuXuXuXuXuXuXuXuX",
"uXuXuXuXuXuXuXuXuXuXuXuXuXuXuXuXuXuXuX* S Q. X:X3X<X,XXX^.T j X uXuXuXuXuXuXuXuXuXuXuXuXuXuXuXuXuXuX",
"uXuXuXuXuXuXuXuXuXuXuXuXuXuXuXuXuX- E.3XeX9X9X8X6X7X7X8X9XqXqX:Xg.O uXuXuXuXuXuXuX  H W.h uXuXuXuXuX",
"uXuXuXuXuXuXX uXuXuXuXuXuXuXuXO U 3X9X7X5X2X5X5X<X7X7X5X5X2X7X8XeX3XT   uXuXuXuXO `.yX4Xk.  uXuXuXuX",
"uXuXuXuXuXO A o uXuXuXuXuXuXO Y. X5X5X5X5X5X5X5X5X5X5X5X5X5X5X5X7X0XeX{.: uXuX  `.yXtXoX|.O uXuXuXuX",
"uXuXuXuXX M |   uXuXuXuXuXO Q.).~.2X5X5X5X5X5X5X5X5X5X5X5X5X5X5X7X5X7XqX:X- uXR yXtXtXG G j uXuXuXuX",
"uXuXuXuXo d w.X uXuXuXuXO X.`.^.>X5X5X5X5X5X5X5X5X5X5X7X5X5X5X5X5X5X5X5XqX X  4XtXtX4Xk _ X uXuXuXuX",
"uXuXuXuXo d [ b X uXuXuXN `.^.].5X5X5X5X5X5X5X5X5X5X5X5X5X5X5X5X5X5X5X5X7XqXg. XtXtXoXz e.4 uXuXuXuX",
"uXuXuXuXo t d w.} 2 o X N U !..X5X5X5X5X2X2X5X2X2X7X5X5X5X5X5X5X5X5X5X5X5X7X3Xv tXtXW.m { e uXuXuXuX",
"uXuXuXuXX < y d ] y.i.v.y.} N ).5X5X5X5X5X1X2X-X-X2X7X7X5X5X5X5X5X5X5X5X5X/.6Xg.k.R 2 [ y 0   uXuXuX",
"uXuXuXuXuXo < e y M u u ~ M =  .5X5X5X5X5XR.S K A F {.<X5X5X5X5X5X5X5X5X5X2X5X#X2 [ y.) e < uXuXuXuX",
"uXuXuXuXuXuXo < < < < < t t = .X5X5X2X1Xg.B $XP.I.%X} F [.5X5X5X5X5X5X5X5Xg.b -X1 Z u y 0 o uXuXuXuX",
"uXuXuXuXuXuXuXX o > < < < < 1 {.5X5X[.x b.*X8.5.5.8.I.%XA Y >X7X7X5X5X5Xx.| =Xb j e 0 < =   uXuXuXuX",
"uXuXuXuXuXuXuXuXuXuXX 2 o = k.).2Xl.B =XL.5.:.Q @.,.5.8.I.}.b ~.<X7X5X/.B *Xq.OXo > > o O uXuXuXuXuX",
"uXuXuXuXuXuXuXuXuXuX= ).).!.).!.S g.*X8.,.W 0 [ ] # Q ,.5.0.&Xh.H >X/.B &X8.<.0...h G X uXuXuXuXuXuX",
"uXuXuXuXuXuXuXuXuXuX- ).).).!.j Y L.5.O.< [ J.F.S.d.` # @.5.5.L.G.l B &X6.#.6 9.j.Y.X.  uXuXuXuXuXuX",
"uXuXuXuXuXuXuXuXuXuX- ).).).x ..f.%.Q r p.B.` u.S.J.A.s.Z % ;.5.9.U.U.6.+.w ) ^ g.Y.x uXuXuXuXuXuXuX",
"uXuXuXuXuXuXuXuXuXuX= ^.).).k b.$.6 Z d.s.` / ^ p t ' m.A.p.w a <.5.5.#.r H.d.O 3 Y.O uXuXuXuXuXuXuX",
"uXuXuXuXuXuXuXuXuXuX* (.).).c j.$.@ s.s.B.i 8 5 9 p / f q y.S.y.% O.W C D.d.) x R R uXuXuXuXuXuXuXuX",
"uXuXuXuXuXuXuXuXuXuXX E.).).S ' $.% p.s.[ @ 5 8 8 8 8 E ( ~ q M.A.Z s u q p 9 S |.x uXuXuXuXuXuXuXuX",
"uXuXuXuXuXuXuXuXuXuXX z.).).U _ $.7 w.s.V.u.< n j < o 5 5 8 9 u.K.J.# W E 5 5 I W.O uXuXuXuXuXuXuXuX",
"uXuXuXuXuXuXuXuXuXuXX  .).).T s $.a ' s.Z.K.) 0X6X/.> E.J < r H.K.J.< , 1 =   Q.R uXuXuXuXuXuXuXuXuX",
"uXuXuXuXuXuXuXuXuXuXuXH ).).z.% $./ 1 ' S.U.u.~.rX0X@XrX .M.K.K.J.K.u._.5XJ X |.x uXuXuXuXuXuXuXuXuX",
"uXuXuXuXuXuXuXuXuXuXuX1 ).).E.o @.$.&.A 4 t.D.`  .@X.X| u.K.K.K.d A.S...rX..= W.O uXuXuXuXuXuXuXuXuX",
"uXuXuXuXuXuXuXuXuXuXuXO E.^.^.l.- 6 @.$.a.v.3 Z a.a.a.D.K.K.K.K.n._ ' [ K [ = k uXuXuXuXuXuXuXuXuXuX",
"uXuXuXuXuXuXuXuXuXuXuXX S !.^.^.^.R h & #.8.I.G.w S.K.K.K.K.K.K.Z.y.0 K.J.w }   uXuXuXuXuXuXuXuXuXuX",
"uXuXuXuXuXuXuXuXuXuXuXuXuX= J E./.^.^.g.N 7 >.P.K S.D.A.K.K.K.K.J.m.A.K.M.g r.X uXuXuXuXuXuXuXuXuXuX",
"uXuXuXuXuXuXuXuXuXuXuXuXuXuXuXO N l.^.^.@Xc.+.I.3 H.J.d.u.S.K.K.K.K.K.J.` e.1 uXuXuXuXuXuXuXuXuXuXuX",
"uXuXuXuXuXuXuXuXuXuXuXuXuXuXuXuXuX  - c Y F :.$Xw s.s.V.S.Z.D.Z.S.V.u.] , L X uXuXuXuXuXuXuXuXuXuXuX",
"uXuXuXuXuXuXuXuXuXuXuXuXuXuXuXuXuXX : I R X g A = < r y s V M r 4 + % f + V B uXuXuXuXuXuXuXuXuXuXuX",
"uXuXuXuXuXuXuXuXuXuXuXuXuXuXuXO F D h P R J - $ =.' m } + S d.2.C.j.l & ~ f.3 uXuXuXuXuXuXuXuXuXuXuX",
"uXuXuXuXuXuXuXuXuXuXuXuXuXuX   .>X.X- z * l.n T.< W ! a - j.4.4.4.3.=.f.d 4 X uXuXuXuXuXuXuXuXuXuXuX",
"uXuXuXuXuXuXuXuXuXuXuXuXuXuXc ].5X5X>Xn J '...7X1X'.c.l.:XX $ W %.2.*.*.*.-.* uXuXuXuXuXuXuXuXuXuXuX",
"uXuXuXuXuXuXuXuXuXuXuXuXuXuXH -X5X6Xj ~.>Xx.x.7X5X-Xx.L ^.- uX  1 @ g ! -.(   uXuXuXuXuXuXuXuXuXuXuX",
"uXuXuXuXuXuXuXuXuXuXuXuXuX  k.[.2X.XX.>X5Xk./.>Xc.'.>Xl.2XJ B L n 2 O O = @ uXuXuXuXuXuXuXuXuXuXuXuX",
"uXuXuXuXuXuXuXuXuXuXuXuXuXX U >X9XX.!.,X5X..h.(.1X2X>Xx.7X_.' G.= ..j uXuXuXuXuXuXuXuXuXuXuXuXuXuXuX",
"uXuXuXuXuXuXuXuXuXuXuXuXuXX ] 3 n 2 m @X5XJ @X5X2X7Xl.J z.1 q V.m e.m uXuXuXuXuXuXuXuXuXuXuXuXuXuXuX",
"uXuXuXuXuXuXuXuXuXuXuXuXuXo B.A.H.K.n.N  .j J T J b 4 M.t.' X X M G.O uXuXuXuXuXuXuXuXuXuXuXuXuXuXuX",
"uXuXuXuXuXuXuXuXuXuXuXuXuX= m.J.K.K.v.> ~ C ~ M q s # :.! f + ' w.n uXuXuXuXuXuXuXuXuXuXuXuXuXuXuXuX",
"uXuXuXuXuXuXuXuXuXuXuXuXuX+ s.S.H.K.i.1 > 2 , > > > o a o.B + t.| o uXuXuXuXuXuXuXuXuXuXuXuXuXuXuXuX",
"uXuXuXuXuXuXuXuXuXuXuXuXuXX ` y.i.U.G.m l.l.F c.^.'.[.-X_.XX3 X = uXuXuXuXuXuXuXuXuXuXuXuXuXuXuXuXuX",
"uXuXuXuXuXuXuXuXuXuXuXuXuXuX  o @ ) w (.5X2XF 2X2X5X5X5X,XS -Xg.uXuXuXuXuXuXuXuXuXuXuXuXuXuXuXuXuXuX",
"uXuXuXuXuXuXuXuXuXuXuXuXuXuXuXuXuX= ^.2X5X2X3 '././.c.F S [.5X1XuXuXuXuXuXuXuXuXuXuXuXuXuXuXuXuXuXuX",
"uXuXuXuXuXuXuXuXuXuXuXuXuXuXuXuXuXS .X5X5X'.X X     uXB /.-X5X5X= uXuXuXuXuXuXuXuXuXuXuXuXuXuXuXuXuX",
"uXuXuXuXuXuXuXuXuXuXuXuXuXuXuXuXX Y -X7X<Xh.uXuXuXuXuX* T ].>Xx.* uXuXuXuXuXuXuXuXuXuXuXuXuXuXuXuXuX",
"uXuXuXuXuXuXuXuXuXuXuXuXuXuXuXuXf 7 x.1X2Xl uXuXuXuXuX& W -.%.;.! uXuXuXuXuXuXuXuXuXuXuXuXuXuXuXuXuX",
"uXuXuXuXuXuXuXuXuXuXuXuXuXuXuXO Q 2.:.! Z X uXuXuXuXuX6 ! ;.;.+.a uXuXuXuXuXuXuXuXuXuXuXuXuXuXuXuXuX",
"uXuXuXuXuXuXuXuXuXuXuXuXuXuXuXO z 6 O.,.,.X uXuXuXuXuX* z h z v W.- uXuXuXuXuXuXuXuXuXuXuXuXuXuXuXuX",
"uXuXuXuXuXuXuXuXuXuXuXuXuXuX. h P P z ; 3 ; uXuXuXuXuX: v G P G R Y.. uXuXuXuXuXuXuXuXuXuXuXuXuXuXuX",
"uXuXuXuXuXuXuXuXuXuXuXuXuXuX. O O * X * - = uXuXuXuXuX      .   . . uXuXuXuXuXuXuXuXuXuXuXuXuXuXuXuX"
};
